<?xml version="1.0" standalone="no"?>
<!DOCTYPE svg PUBLIC "-//W3C//DTD SVG 1.1//EN" "http://www.w3.org/Graphics/SVG/1.1/DTD/svg11.dtd" >
<svg xmlns="http://www.w3.org/2000/svg" xmlns:xlink="http://www.w3.org/1999/xlink" version="1.1">
<metadata></metadata>
<defs>
<font id="mairy_thinregular" horiz-adv-x="358" >
<font-face units-per-em="2048" ascent="1536" descent="-512" />
<missing-glyph horiz-adv-x="387" />
<glyph unicode="&#xfb01;" horiz-adv-x="1083" d="M670 1190q-36 6 -56 6q-57 0 -101 -9t-72.5 -22t-49 -36t-30.5 -42.5t-15.5 -51t-6.5 -51t-1 -52.5v-103h283q22 0 22 -22v-27q0 -22 -22 -22h-283v-735q0 -23 -23 -23h-26q-23 0 -23 23v735h-172q-22 0 -22 22v27q0 22 22 22h172v89q0 187 77.5 265.5t254.5 78.5 q49 0 76 -9q11 -5 15.5 -9.5t4.5 -14.5l-6 -25q-4 -14 -18 -14zM868 23v784q0 22 23 22h27q22 0 22 -22v-784q0 -23 -22 -23h-27q-23 0 -23 23zM860 961q0 19 12 32t31 13t32 -13t13 -32t-13 -31t-32 -12t-31 12t-12 31z" />
<glyph unicode="&#xfb02;" horiz-adv-x="1132" d="M670 1190q-36 6 -56 6q-57 0 -101 -9t-72.5 -22t-49 -36t-30.5 -42.5t-15.5 -51t-6.5 -51t-1 -52.5v-103h283q22 0 22 -22v-27q0 -22 -22 -22h-283v-735q0 -23 -23 -23h-26q-23 0 -23 23v735h-172q-22 0 -22 22v27q0 22 22 22h172v89q0 187 77.5 265.5t254.5 78.5 q49 0 76 -9q11 -5 15.5 -9.5t4.5 -14.5l-6 -25q-4 -14 -18 -14zM938 1141v-1035q0 -25 14.5 -37t37 -16.5t26.5 -7.5q6 -6 6 -14v-23q0 -18 -74 -18q-82 0 -82 98v1053q0 22 23 22h26q23 0 23 -22z" />
<glyph horiz-adv-x="0" />
<glyph unicode="&#xd;" horiz-adv-x="579" />
<glyph unicode=" "  horiz-adv-x="387" />
<glyph unicode="&#x09;" horiz-adv-x="387" />
<glyph unicode="&#xa0;" horiz-adv-x="387" />
<glyph unicode="!" horiz-adv-x="374" d="M158 188l-6 953q0 22 22 22h27q22 0 22 -22l-4 -953q0 -22 -22 -22h-17q-22 0 -22 22zM143 35q0 19 12 31t31 12t32 -12t13 -31t-13 -32t-32 -13t-31 13t-12 32z" />
<glyph unicode="&#x22;" horiz-adv-x="618" d="M215 1141l-10 -246q0 -23 -23 -23h-8q-22 0 -22 23l-9 246q0 22 23 22h27q22 0 22 -22zM475 1141l-10 -246q0 -23 -23 -23h-8q-22 0 -22 23l-9 246q0 22 23 22h27q22 0 22 -22z" />
<glyph unicode="#" horiz-adv-x="1667" d="M508 365h534l154 444h-534zM1096 299l-99 -276q-10 -23 -28 -23h-25q-22 0 -22 23l98 276h-535q-14 -43 -49 -142t-47 -134q-10 -23 -29 -23h-26q-23 0 -23 23l99 276h-244q-23 0 -23 23v20q0 23 23 23h266l154 444h-287q-23 0 -23 22v21q0 22 23 22h311l90 267 q9 22 29 22h27q22 0 22 -22l-92 -267h537l90 267q9 22 28 22h27q23 0 23 -22l-95 -267h205q23 0 23 -22v-21q0 -22 -23 -22h-227l-156 -444h248q23 0 23 -23v-20q0 -23 -23 -23h-270z" />
<glyph unicode="$" horiz-adv-x="1118" d="M975 301q0 -136 -92.5 -217.5t-288.5 -91.5v-230q0 -22 -23 -22h-26q-23 0 -23 22v228q-64 2 -159 15t-158 32q-19 8 -19 20l9 37q4 15 18 15q71 -20 162.5 -35.5t146.5 -18.5v541q-46 10 -71 15.5t-66.5 16.5t-65.5 22t-56 27.5t-50.5 36.5t-36 45.5t-25.5 59t-8 72.5 q0 65 17 111.5t59 83t117 56t186 23.5v209q0 23 23 23h26q23 0 23 -23v-207q140 -6 237 -22q17 -7 17 -19v-30q-4 -15 -19 -15q-149 19 -235 19v-449q68 -15 113.5 -29t101 -41.5t88.5 -62t55.5 -90t22.5 -127.5zM215 897q0 -45 17.5 -80.5t42.5 -57.5t70.5 -40.5t81.5 -28 t95 -22.5v430q-164 -5 -235.5 -47.5t-71.5 -153.5zM594 57q40 2 76.5 8.5t80.5 23.5t76 43.5t54 72.5t22 106q0 53 -17 94.5t-43.5 68.5t-69.5 48.5t-83 33.5t-96 24v-523z" />
<glyph unicode="%" horiz-adv-x="1382" d="M408 20l491 1123q8 20 25 20h28q23 0 23 -20l-492 -1123q-8 -20 -24 -20h-29q-22 0 -22 20zM143 944q0 112 58 167.5t157 55.5t157 -55.5t58 -167.5t-58 -167.5t-157 -55.5t-157 55.5t-58 167.5zM516 944q0 49 -16.5 84t-42.5 51.5t-50.5 23.5t-48.5 7t-48 -7 t-50.5 -23.5t-42.5 -51.5t-16 -84t16 -84t42.5 -51.5t50.5 -23.5t48 -7t48.5 7t50.5 23.5t42.5 51.5t16.5 84zM1239 213q0 -112 -58 -167.5t-157 -55.5t-157 55.5t-58 167.5t58 167.5t157 55.5t157 -55.5t58 -167.5zM866 213q0 -49 16.5 -84t42.5 -51.5t50.5 -23.5t48.5 -7 t48.5 7t50.5 23.5t42.5 51.5t16.5 84t-16.5 84t-42.5 51.5t-50.5 23.5t-48.5 7t-48.5 -7t-50.5 -23.5t-42.5 -51.5t-16.5 -84z" />
<glyph unicode="&#x26;" horiz-adv-x="1245" d="M569 55q55 0 146 34.5t157 96.5l-329 332q-165 -28 -246.5 -89t-81.5 -163q0 -121 82.5 -166t271.5 -45zM467 696l625 -622q23 -18 61 -21q10 0 14 -6q17 -17 17 -24q0 -29 -58 -29q-50 0 -94 41l-106 94q-194 -139 -361 -139q-210 0 -316 61t-106 209q0 39 6.5 71.5 t28.5 71t58.5 68.5t101.5 59t154 48q-205 168 -205 315q0 274 319 274q184 0 267 -68.5t83 -205.5q0 -26 -16 -80q-7 -22 -27 -22h-22q-23 0 -23 22q17 53 17 78q0 45 -9 77.5t-36 65t-85.5 49.5t-148.5 17q-128 0 -188 -48t-60 -159q0 -88 109 -197z" />
<glyph unicode="'" d="M215 1141l-10 -246q0 -23 -23 -23h-8q-22 0 -22 23l-9 246q0 22 23 22h27q22 0 22 -22z" />
<glyph unicode="(" horiz-adv-x="493" d="M258 1425q7 27 29 27h20q23 0 23 -22q-43 -160 -70 -412.5t-27 -446.5q0 -468 97 -852q0 -22 -23 -22h-20q-22 0 -29 27q-49 200 -71.5 392.5t-22.5 452.5q0 259 22.5 457.5t71.5 398.5z" />
<glyph unicode=")" horiz-adv-x="493" d="M236 1425q49 -200 71.5 -398.5t22.5 -457.5q0 -260 -22.5 -452.5t-71.5 -392.5q-7 -27 -29 -27h-21q-22 0 -22 22q96 380 96 852q0 195 -26.5 447.5t-69.5 411.5q0 22 22 22h21q22 0 29 -27z" />
<glyph unicode="*" horiz-adv-x="882" d="M440 813l-135 -205q-16 -12 -26 -12q-14 0 -28.5 14t-14.5 27q0 6 2 10q1 2 13 16q14 16 26 30t47 55.5t79 93.5l-239 55q-21 11 -21 29l4 26q9 21 29 21l242 -86l-12 246q0 27 28 30h19q28 -3 28 -30l-16 -246l242 86q19 0 28 -21l4 -26q0 -19 -20 -29l-240 -55 q108 -128 158 -185q7 -9 8 -10q2 -4 2 -10q0 -13 -14.5 -27t-28.5 -14q-10 0 -26 12z" />
<glyph unicode="+" horiz-adv-x="800" d="M436 356v-213q0 -22 -22 -22h-27q-22 0 -22 22v213h-199q-23 0 -23 23v22q0 23 23 23h199v213q0 22 22 22h27q22 0 22 -22v-213h199q22 0 22 -23v-22q0 -23 -22 -23h-199z" />
<glyph unicode="," horiz-adv-x="282" d="M92 -168q25 73 25 137q0 44 -4 64q0 10 6 16t14 6h35q8 0 15 -6t7 -16q0 -99 -26 -201q-3 -22 -23 -22h-30q-19 0 -19 22z" />
<glyph unicode="-" horiz-adv-x="813" d="M647 338h-481q-23 0 -23 22v23q0 23 23 23h481q23 0 23 -23v-23q0 -22 -23 -22z" />
<glyph unicode="." horiz-adv-x="374" d="M143 35q0 19 12 31t31 12t32 -12t13 -31t-13 -32t-32 -13t-31 13t-12 32z" />
<glyph unicode="/" horiz-adv-x="845" d="M754 1430l-586 -1713q-8 -20 -25 -20h-28q-23 0 -23 20l588 1713q8 20 25 20h28q21 0 21 -20z" />
<glyph unicode="0" horiz-adv-x="1216" d="M608 55q64 0 114.5 10t105 42.5t90.5 87t59.5 151t23.5 227.5q0 106 -15.5 190.5t-38.5 139t-60 93.5t-68.5 58.5t-76 30.5t-71 13t-63.5 2t-63.5 -2t-71 -13t-76 -30.5t-68.5 -58.5t-60 -93.5t-38.5 -139t-15.5 -190.5q0 -131 23.5 -227.5t59.5 -151t90.5 -87t105 -42.5 t114.5 -10zM608 -10q-83 0 -150 16.5t-127 58t-100.5 106.5t-64 167t-23.5 235q0 140 24.5 245.5t65 171t101.5 106t126.5 56t147.5 15.5t147.5 -15.5t126.5 -56t101.5 -106t65 -171t24.5 -245.5q0 -133 -23.5 -235t-64 -167t-100.5 -106.5t-127 -58t-150 -16.5z" />
<glyph unicode="1" horiz-adv-x="716" d="M106 950l392 213h53q22 0 22 -22v-1118q0 -23 -22 -23h-27q-22 0 -22 23v1060l-398 -215q-22 0 -22 23v31q0 10 4.5 15t19.5 13z" />
<glyph unicode="2" horiz-adv-x="972" d="M201 1130q69 17 153.5 27t116.5 10q118 0 191.5 -14t112.5 -47t52 -75.5t13 -112.5q0 -64 -35.5 -120.5t-92.5 -101t-126 -87.5t-137.5 -87.5t-125.5 -93t-92.5 -113.5t-35.5 -139v-108h593q23 0 23 -23v-22q0 -23 -23 -23h-643q-22 0 -22 23v155q0 79 35.5 149.5 t92.5 123.5t126 102t137.5 92t125.5 85t92.5 90t35.5 98q0 37 -5 64t-14 47t-28 33t-38.5 20.5t-56 11.5t-70 5t-89.5 1q-87 0 -262 -35q-15 0 -19 14l-2 33q0 11 17 18z" />
<glyph unicode="3" horiz-adv-x="909" d="M393 -10q-107 0 -274 22q-17 5 -17 19l2 32q4 15 19 15q221 -23 256 -23q93 0 154.5 14t97 45t49.5 74t14 107q0 46 -18.5 89t-55.5 79.5t-99.5 59t-141.5 22.5h-45q-23 0 -23 22v23q0 22 23 22h45q89 0 154 23t98 62t48 81.5t15 91.5q0 135 -71 182.5t-244 47.5 q-35 0 -256 -23q-15 0 -19 15l-2 32q0 14 17 19q182 24 260 24q197 0 292 -67.5t95 -227.5q0 -37 -9.5 -76t-31 -81t-63 -79.5t-97.5 -60.5q59 -28 101 -64.5t62.5 -75t29 -71.5t8.5 -67q0 -163 -91.5 -235t-281.5 -72z" />
<glyph unicode="4" horiz-adv-x="1046" d="M174 362h565v717zM92 317v56l610 774q8 16 27 16h59q23 0 23 -22v-779h121q22 0 22 -22v-23q0 -22 -22 -22h-121v-272q0 -23 -23 -23h-26q-23 0 -23 23v272h-624q-23 0 -23 22z" />
<glyph unicode="5" horiz-adv-x="954" d="M166 10q-16 7 -16 19l4 34q4 15 18 15q139 -23 254 -23q180 0 262 57.5t82 182.5q0 240 -281 240h-323q-23 0 -23 22v584q0 22 23 22h614q23 0 23 -22v-23q0 -22 -23 -22h-565v-494h272q71 0 128.5 -13t93.5 -33t62.5 -49.5t39.5 -55.5t20.5 -59t9 -52t1.5 -43 q0 -160 -106 -233.5t-310 -73.5q-143 0 -260 20z" />
<glyph unicode="6" horiz-adv-x="991" d="M510 614q-78 0 -135.5 -21t-87 -50.5t-47 -72.5t-21.5 -75t-4 -71t5 -70.5t23 -70t48 -64.5t86.5 -44t132.5 -18q86 0 145 22.5t88.5 63.5t41.5 86.5t12 104.5q0 64 -12 110.5t-42 87t-88.5 61.5t-144.5 21zM801 1128q11 -5 13.5 -8t2.5 -10l-6 -33q-3 -14 -18 -14 q-108 39 -215 39q-39 0 -66.5 -1.5t-68.5 -7.5t-69.5 -17.5t-60.5 -34t-52 -53.5t-33 -79t-13 -108v-246q31 43 76 72t93 39t74.5 13t51.5 3q183 0 270.5 -85t87.5 -265q0 -173 -88 -257.5t-270 -84.5q-185 0 -276 88.5t-91 251.5v454q0 188 103.5 285.5t302.5 97.5 q151 0 252 -39z" />
<glyph unicode="7" horiz-adv-x="841" d="M729 1096l-410 -1073q-10 -23 -28 -23h-29q-20 0 -20 23l411 1075h-559q-22 0 -22 22v21q0 22 22 22h613q22 0 22 -22v-45z" />
<glyph unicode="8" horiz-adv-x="1003" d="M502 55q64 0 113 10t79 29.5t50 41t29 51.5t12 53.5t3 54.5q0 37 -4.5 67t-21.5 66t-46.5 60.5t-84 41.5t-129.5 17t-129.5 -17t-84 -41.5t-47 -60.5t-22 -66t-4.5 -67q0 -30 3 -54t12.5 -54t29.5 -51.5t50 -41t79 -29.5t113 -10zM502 614q64 0 113.5 11t79.5 32 t49.5 44.5t28.5 55.5t12 56.5t3 56.5q0 35 -5 63.5t-22.5 61t-47 54.5t-83.5 36.5t-128 14.5t-128 -14.5t-84 -36.5t-47.5 -54.5t-22.5 -61t-5 -63.5q0 -39 4 -68.5t21 -67t46 -62t84.5 -41.5t131.5 -17zM502 -10q-180 0 -269.5 79t-89.5 228q0 209 174 281q-54 19 -91 55.5 t-53.5 81t-23 81.5t-6.5 76q0 140 90 217.5t269 77.5t268.5 -77.5t89.5 -217.5q0 -39 -6.5 -76t-23 -81.5t-53.5 -81t-91 -55.5q174 -72 174 -281q0 -149 -89 -228t-269 -79z" />
<glyph unicode="9" horiz-adv-x="991" d="M481 506q295 0 295 309q0 285 -295 285q-286 0 -286 -295q0 -64 12 -113.5t41.5 -93.5t88 -68t144.5 -24zM190 29q-11 5 -13.5 8t-2.5 10l6 33q4 14 19 14q108 -39 215 -39q39 0 66.5 1.5t68 7.5t69.5 17.5t61 34t51.5 53.5t32.5 79t13 108v209q-31 -43 -76 -72t-93 -39 t-74.5 -13t-51.5 -3q-358 0 -358 369q0 175 89 267.5t269 92.5q185 0 276 -88.5t91 -251.5v-454q0 -188 -103.5 -285.5t-302.5 -97.5q-151 0 -252 39z" />
<glyph unicode=":" horiz-adv-x="374" d="M143 35q0 19 12 31t31 12t32 -12t13 -31t-13 -32t-32 -13t-31 13t-12 32zM143 705q0 19 12 31t31 12t32 -12t13 -31t-13 -32.5t-32 -13.5q-18 0 -30.5 13.5t-12.5 32.5z" />
<glyph unicode=";" horiz-adv-x="391" d="M160 705q0 19 12 31t31 12t32 -12t13 -31t-13 -32.5t-32 -13.5q-18 0 -30.5 13.5t-12.5 32.5zM143 -168q25 73 25 137q0 44 -4 64q0 10 6 16t14 6h35q8 0 15.5 -6t7.5 -16q0 -95 -27 -201q-3 -22 -22 -22h-31q-19 0 -19 22z" />
<glyph unicode="&#x3c;" horiz-adv-x="821" d="M199 403l456 -213q23 -10 23 -28v-27q0 -22 -23 -22l-489 225q-23 14 -23 35v61q0 21 23 35l489 225q23 0 23 -22v-27q0 -19 -23 -29z" />
<glyph unicode="=" horiz-adv-x="804" d="M639 111h-473q-23 0 -23 22v23q0 22 23 22h473q23 0 23 -22v-23q0 -22 -23 -22zM639 473h-473q-23 0 -23 23v22q0 23 23 23h473q23 0 23 -23v-22q0 -23 -23 -23z" />
<glyph unicode="&#x3e;" horiz-adv-x="821" d="M166 190l457 213l-457 213q-23 10 -23 29v27q0 22 23 22l489 -225q23 -14 23 -35v-61q0 -21 -23 -35l-489 -225q-23 0 -23 22v27q0 18 23 28z" />
<glyph unicode="?" horiz-adv-x="909" d="M168 1145q115 22 235 22q71 0 127 -8t93.5 -21t65 -33.5t42 -41t23 -49t10.5 -51.5t2 -54q0 -63 -22.5 -113t-59 -82t-80 -59t-87 -53t-80 -56t-59 -75.5t-22.5 -103.5v-54q0 -22 -22 -22h-27q-22 0 -22 22v90q0 55 22.5 99.5t58.5 74.5t80 56.5t87.5 53t79.5 56t58.5 73 t22.5 97.5q0 48 -10 78.5t-39.5 57t-88.5 39t-150 12.5q-115 0 -240 -21q-23 0 -23 23v18q0 19 25 25zM276 35q0 19 12 31t31 12t32.5 -12.5t13.5 -30.5q0 -19 -13.5 -32t-32.5 -13t-31 13t-12 32z" />
<glyph unicode="@" horiz-adv-x="1349" d="M616 307q0 -77 14.5 -126t49 -77t84 -38.5t127.5 -10.5q146 0 244 62v346q-61 45 -147.5 63.5t-139.5 18.5q-25 0 -42 -1t-43.5 -6t-45 -14t-39 -26.5t-33 -42t-21 -62.5t-8.5 -86zM553 -354q14 0 18 -15l7 -32q0 -12 -17 -19q-49 -12 -127 -12q-71 0 -123 19.5t-84 53.5 t-51 88t-26 114.5t-7 142.5v614q0 135 29.5 237t78 164t119 100t143.5 52t161 14t159 -12.5t143 -50t120.5 -99.5t79 -167.5t30.5 -247.5v-502q0 -18 -20 -29q-152 -69 -287 -69q-191 0 -272.5 70t-81.5 245q0 165 76 235t219 70q26 0 63 -3t107.5 -21t124.5 -49v55 q0 82 -11.5 150.5t-29.5 117.5t-47.5 88.5t-56.5 64t-66 42t-67 26t-68.5 13.5t-61 5.5t-53.5 0.5q-40 0 -69 -1.5t-80.5 -11.5t-89 -27.5t-81.5 -53.5t-72.5 -86t-47.5 -128t-19 -176v-675q0 -33 1 -55t6 -57.5t14.5 -59.5t28.5 -51.5t45 -44.5t67 -28.5t92 -11.5 q34 0 84 13z" />
<glyph unicode="A" horiz-adv-x="1167" d="M1004 35l-105 262h-641l-108 -274q-10 -23 -29 -23h-27q-22 0 -22 23l442 1118q14 22 35 22h61q21 0 35 -22l412 -1043q16 -41 37 -41q5 0 8 -3.5t4 -7.5v-3v-31q0 -14 -49 -14q-38 0 -53 37zM580 1108l-297 -746h591z" />
<glyph unicode="B" horiz-adv-x="1021" d="M459 1096h-244v-486h244q57 0 99.5 5t87 20.5t72.5 42t46 72.5t18 110q0 47 -9.5 83.5t-24.5 61t-40.5 42t-49.5 27t-61 14.5t-66 6.5t-72 1.5zM535 66q42 0 70 1t64 6.5t59.5 15t48 26.5t39 41.5t23.5 61t9 83.5q0 48 -9 86t-23.5 63.5t-39 43.5t-48 28t-59.5 15 t-64 6.5t-70 1.5h-320v-479h320zM166 1163h307q89 0 154 -13t118.5 -45t81 -91t27.5 -146q0 -29 -1.5 -51t-10 -60t-24 -66.5t-47 -58t-75.5 -46.5q224 -28 224 -285q0 -171 -87.5 -236t-281.5 -65h-385q-23 0 -23 23v1118q0 22 23 22z" />
<glyph unicode="C" horiz-adv-x="983" d="M874 35q-110 -45 -251 -45q-84 0 -156.5 18t-138.5 61.5t-113 109t-74.5 166t-27.5 228.5q0 141 28 247.5t74 171.5t113.5 105t138 55t156.5 15q141 0 249 -43q17 -7 17 -18l-6 -33q-3 -14 -19 -14q-116 41 -215 41q-35 0 -56 -0.5t-62.5 -5.5t-69.5 -13.5t-67 -27 t-66 -44t-56.5 -66t-47 -91.5t-29 -122.5t-11.5 -156.5q0 -94 16.5 -171t43.5 -130t65 -93t76.5 -63t83.5 -37.5t81 -19t73 -4.5q47 0 117 11.5t126 33.5q16 0 19 -14l6 -33q0 -11 -17 -18z" />
<glyph unicode="D" horiz-adv-x="1042" d="M858 420v338q0 92 -24.5 159.5t-69 105.5t-98.5 55.5t-119 17.5h-332v-1030h340q135 0 219 87t84 267zM557 0h-391q-23 0 -23 23v1118q0 22 23 22h371q189 0 291 -100t102 -291v-358q0 -196 -94.5 -305t-278.5 -109z" />
<glyph unicode="E" horiz-adv-x="917" d="M215 66h588q22 0 22 -23v-20q0 -23 -22 -23h-637q-23 0 -23 23v1118q0 22 23 22h637q22 0 22 -22v-23q0 -22 -22 -22h-588v-486h451q22 0 22 -22v-21q0 -22 -22 -22h-451v-479z" />
<glyph unicode="F" horiz-adv-x="917" d="M215 545v-522q0 -23 -22 -23h-27q-23 0 -23 23v1118q0 22 23 22h637q22 0 22 -22v-23q0 -22 -22 -22h-588v-486h451q22 0 22 -22v-21q0 -22 -22 -22h-451z" />
<glyph unicode="G" horiz-adv-x="1120" d="M723 569h242q22 0 22 -22v-524q0 -23 -22 -23h-19q-15 0 -22 23l-9 24q-62 -28 -149 -42.5t-143 -14.5q-84 0 -156.5 18t-138.5 61.5t-113 109t-74.5 166t-27.5 228.5q0 141 28 247.5t74 171.5t113.5 105t138 55t156.5 15q68 0 159 -11t144 -32q11 -5 13.5 -8t2.5 -10 l-6 -33q-4 -14 -18 -14q-54 19 -138.5 30t-130.5 11q-35 0 -56 -0.5t-62.5 -5.5t-69.5 -13.5t-67 -27t-66 -44t-56.5 -66t-47 -91.5t-29 -122.5t-11.5 -156.5q0 -94 16.5 -171t43.5 -130t65 -93t76.5 -63t83.5 -37.5t81 -19t73 -4.5q41 0 132 18.5t160 47.5v383h-192 q-23 0 -23 22v21q0 22 23 22z" />
<glyph unicode="H" horiz-adv-x="1105" d="M963 1141v-1118q0 -23 -23 -23h-27q-22 0 -22 23v530h-676v-530q0 -23 -22 -23h-27q-23 0 -23 23v1118q0 22 23 22h27q22 0 22 -22v-523h676v523q0 22 22 22h27q23 0 23 -22z" />
<glyph unicode="I" d="M215 1141v-1118q0 -23 -22 -23h-27q-23 0 -23 23v1118q0 22 23 22h27q22 0 22 -22z" />
<glyph unicode="J" horiz-adv-x="894" d="M78 31q-17 7 -17 18l7 39q4 14 18 14q49 -23 113.5 -35t107.5 -12q35 0 55 0.5t55.5 4.5t57 11t52.5 21.5t50 35t41 52.5t34 72.5t20 96.5t8 124v668q0 22 22 22h27q23 0 23 -22v-672q0 -90 -13.5 -163t-35 -122t-55.5 -85.5t-68.5 -57t-80 -32.5t-84 -15.5t-87.5 -3.5 q-144 0 -250 41z" />
<glyph unicode="K" horiz-adv-x="1062" d="M899 23q-74 158 -200.5 367.5t-159.5 246.5q-51 -37 -114.5 -67t-105 -44t-104.5 -32v-471q0 -23 -22 -23h-27q-23 0 -23 23v1118q0 22 23 22h27q22 0 22 -22v-563q187 23 375 193t264 370q9 22 27 22h26q23 0 23 -22q-38 -108 -123 -229t-207 -234q212 -310 381 -655 q0 -23 -23 -23h-30q-19 0 -29 23z" />
<glyph unicode="L" horiz-adv-x="882" d="M778 0h-612q-23 0 -23 23v1118q0 22 23 22h27q22 0 22 -22v-1075h563q23 0 23 -23v-20q0 -23 -23 -23z" />
<glyph unicode="M" horiz-adv-x="1390" d="M713 238h-33q-9 0 -21 8t-20 26l-369 824l-71 -1073q-4 -14 -10 -18.5t-17 -4.5h-27q-22 0 -22 23l80 1118q0 22 22 22h76q19 0 27 -16l368 -825l367 825q8 16 27 16h75q23 0 23 -22l80 -1118q0 -23 -23 -23h-26q-11 0 -17 4.5t-10 18.5l-72 1073l-366 -824 q-8 -18 -20 -26t-21 -8z" />
<glyph unicode="N" horiz-adv-x="1163" d="M1020 1141v-1118q0 -23 -23 -23h-69q-24 0 -39 25l-674 1075v-1077q0 -23 -22 -23h-27q-23 0 -23 23v1118q0 22 23 22h76q17 0 28 -16l678 -1084v1078q0 22 23 22h26q23 0 23 -22z" />
<glyph unicode="O" horiz-adv-x="1224" d="M612 55q59 0 108.5 8.5t109.5 40.5t101.5 85.5t70 152t28.5 231.5q0 85 -10.5 156.5t-26 122.5t-41.5 91.5t-50 66t-59 44t-60 27t-62.5 13.5t-57 5.5t-51.5 0.5q-42 0 -67.5 -1.5t-74.5 -11.5t-81 -28.5t-72.5 -57.5t-64 -93.5t-40.5 -140t-17 -194.5q0 -96 14.5 -174.5 t38.5 -131.5t59 -93t70.5 -62t79.5 -35.5t79.5 -17.5t75.5 -4zM612 -10q-489 0 -489 583q0 118 17 212t50.5 158t76 108.5t100 69.5t116 35.5t129.5 10.5q86 0 154.5 -15t133 -55t107.5 -105t69 -171.5t26 -247.5q0 -583 -490 -583z" />
<glyph unicode="P" horiz-adv-x="983" d="M532 526q141 0 219 69t78 216q0 144 -79 214.5t-218 70.5h-317v-570h317zM166 1163h346q185 0 287 -87t102 -265q0 -182 -98 -266t-293 -84h-295v-438q0 -23 -22 -23h-27q-23 0 -23 23v1118q0 22 23 22z" />
<glyph unicode="Q" horiz-adv-x="1224" d="M1102 573q0 -549 -432 -581q-35 -78 -90 -248q89 0 356 -39q22 -3 22 -22v-23q0 -22 -22 -22q-211 38 -328 38q-101 0 -274 -30q-23 0 -23 22v23q0 22 23 22q85 7 133 29q36 17 51 51l74 197q-82 2 -149 20t-128 60t-102.5 107t-65.5 165.5t-24 230.5q0 118 17 212 t50.5 158t76 108.5t100 69.5t116 35.5t129.5 10.5q86 0 154.5 -15t133 -55t107.5 -105t69 -171.5t26 -247.5zM612 55q59 0 108.5 8.5t109.5 40.5t101.5 85.5t70 152t28.5 231.5q0 85 -10.5 156.5t-26 122.5t-41.5 91.5t-50 66t-59 44t-60 27t-62.5 13.5t-57 5.5t-51.5 0.5 q-42 0 -67.5 -1.5t-74.5 -11.5t-81 -28.5t-72.5 -57.5t-64 -93.5t-40.5 -140t-17 -194.5q0 -96 14.5 -174.5t38.5 -131.5t59 -93t70.5 -62t79.5 -35.5t79.5 -17.5t75.5 -4z" />
<glyph unicode="R" horiz-adv-x="1019" d="M215 526h334q141 0 219 69t78 216q0 144 -79 214.5t-218 70.5h-334v-570zM805 35l-166 434q-47 -8 -113 -8h-311v-438q0 -23 -22 -23h-27q-23 0 -23 23v1118q0 22 23 22h362q185 0 287.5 -87t102.5 -265q0 -255 -203 -324l143 -389q16 -41 37 -41q5 0 8 -3.5t3 -7.5l1 -3 v-31q0 -14 -49 -14q-38 0 -53 37z" />
<glyph unicode="S" horiz-adv-x="1036" d="M799 1081q-155 19 -238 19q-82 0 -138.5 -5t-104.5 -17.5t-76 -35.5t-43 -58.5t-15 -86.5q0 -71 42 -117.5t109 -69.5t148 -39.5t162 -39t148 -57t109 -103.5t42 -170q0 -146 -105.5 -228.5t-330.5 -82.5q-60 0 -163.5 13.5t-170.5 33.5q-18 8 -18 20l8 37q4 15 18 15 q80 -23 183.5 -38.5t148.5 -15.5q25 0 47.5 1t60.5 6.5t69.5 15.5t66.5 29t58.5 45.5t39.5 67t16 91.5q0 84 -42 140t-109 82.5t-147.5 44.5t-161.5 36t-148 46t-109 86t-42 145q0 69 19.5 117t67.5 85.5t134 55.5t213 18q117 0 254 -22q16 -7 16 -19v-30q-4 -15 -18 -15z " />
<glyph unicode="T" horiz-adv-x="952" d="M104 1163h744q22 0 22 -22v-23q0 -22 -22 -22h-336v-1073q0 -23 -23 -23h-26q-23 0 -23 23v1073h-336q-22 0 -22 22v23q0 22 22 22z" />
<glyph unicode="U" horiz-adv-x="1155" d="M578 -10q-86 0 -149 12.5t-119.5 47t-91.5 93.5t-55 155t-20 228v615q0 22 23 22h27q22 0 22 -22v-611q0 -75 7 -137t18.5 -108t31 -82t38.5 -60t47 -41t51 -26t56 -14t56.5 -6t57.5 -1q45 0 74.5 2t71 12t69 28t58 53.5t48 84.5t29.5 124t12 171v611q0 22 23 22h26 q23 0 23 -22v-615q0 -132 -20 -228t-55 -155t-91.5 -93.5t-119 -47t-148.5 -12.5z" />
<glyph unicode="V" horiz-adv-x="1159" d="M610 0h-61q-21 0 -35 23l-442 1118q0 22 22 22h27q20 0 29 -22l430 -1086l430 1086q9 22 28 22h27q22 0 22 -22l-442 -1118q-14 -23 -35 -23z" />
<glyph unicode="W" horiz-adv-x="1435" d="M1255 1141q22 -92 35 -243t13 -226q0 -154 -4 -255.5t-17 -182t-32 -124.5t-53.5 -73t-77 -38t-107.5 -9q-199 0 -279 178q-15 -42 -38 -74.5t-52 -51t-54.5 -30t-58.5 -16t-49 -5.5t-39 -1q-74 0 -125 18t-85.5 55t-53.5 104t-27 154t-8 216v604q0 22 23 22h27 q22 0 22 -22v-631q0 -92 7.5 -164t18 -119.5t30.5 -81t37.5 -51t45.5 -26.5t48.5 -11t52.5 -2q37 0 67.5 7.5t53 18t40 30.5t28.5 38t19 47t12 50t6 56t2.5 56t0.5 58v725q0 22 23 22h26q23 0 23 -22v-604q0 -44 1 -76.5t6 -86.5t13.5 -93t26.5 -84.5t42 -74t62 -48 t86 -19.5q44 0 73.5 3.5t56 17t42.5 30t29 54t19.5 77t11 110t5.5 142.5t1 185q0 90 -11 231.5t-36 235.5q0 22 22 22h25q19 0 24 -22z" />
<glyph unicode="X" horiz-adv-x="1077" d="M922 23l-383 522l-383 -522q-16 -23 -41 -23h-21q-22 0 -22 23l413 571l-393 547q0 22 23 22h20q25 0 41 -22l363 -500l362 500q16 22 41 22h21q22 0 22 -22l-393 -547l414 -571q0 -23 -23 -23h-20q-25 0 -41 23z" />
<glyph unicode="Y" horiz-adv-x="1028" d="M512 403l367 738q9 22 28 22h27q22 0 22 -22l-407 -832v-286q0 -23 -23 -23h-26q-23 0 -23 23v286l-405 832q0 22 22 22h27q20 0 29 -22z" />
<glyph unicode="Z" horiz-adv-x="929" d="M82 23v51l682 1018h-660q-22 0 -22 22v27q0 22 22 22h721q23 0 23 -22v-49l-684 -1020h661q23 0 23 -23v-26q0 -23 -23 -23h-721q-22 0 -22 23z" />
<glyph unicode="[" horiz-adv-x="583" d="M397 -303h-211q-22 0 -22 22v1711q0 22 22 22h211q23 0 23 -22v-21q0 -23 -23 -23h-161v-1624h161q23 0 23 -22v-21q0 -22 -23 -22z" />
<glyph unicode="\" horiz-adv-x="845" d="M678 -283l-586 1713q0 20 21 20h28q17 0 25 -20l588 -1713q0 -20 -23 -20h-29q-16 0 -24 20z" />
<glyph unicode="]" horiz-adv-x="583" d="M397 -303h-211q-22 0 -22 22v21q0 22 22 22h162v1624h-162q-22 0 -22 23v21q0 22 22 22h211q23 0 23 -22v-1711q0 -22 -23 -22z" />
<glyph unicode="^" horiz-adv-x="634" d="M287 1163h61q21 0 35 -22l109 -211q0 -23 -23 -23h-27q-15 0 -28 23l-97 180l-96 -180q-13 -23 -28 -23h-27q-23 0 -23 23l109 211q14 22 35 22z" />
<glyph unicode="_" horiz-adv-x="804" d="M639 -78h-473q-23 0 -23 23v22q0 23 23 23h473q23 0 23 -23v-22q0 -23 -23 -23z" />
<glyph unicode="`" horiz-adv-x="389" d="M215 1141l31 -193q0 -22 -17 -22h-18q-20 0 -23 22l-45 193q0 22 23 22h22q24 0 27 -22z" />
<glyph unicode="a" horiz-adv-x="942" d="M727 190v572q-59 12 -160 12q-187 0 -295 -102.5t-108 -286.5q0 -330 289 -330q37 0 79 14t75.5 33.5t61 39.5t43.5 34zM799 793v-770q0 -23 -23 -23h-14q-10 0 -13.5 5t-7.5 18l-14 92q-37 -40 -86 -67.5t-94 -38.5t-72.5 -15t-44.5 -4q-159 0 -248.5 100t-89.5 297 q0 222 137.5 338.5t360.5 116.5q97 0 188 -23q21 -8 21 -26z" />
<glyph unicode="b" horiz-adv-x="1001" d="M817 430q0 70 -10.5 125t-30.5 92t-46 62.5t-60.5 39.5t-69.5 19.5t-78 5.5q-50 0 -147.5 -24t-159.5 -74v-559q123 -62 262 -62q168 0 254 95t86 280zM143 82v1059q0 22 23 22h27q22 0 22 -22v-383q154 84 320 84q163 0 258.5 -106.5t95.5 -305.5q0 -207 -105 -323.5 t-307 -116.5q-169 0 -313 65q-21 12 -21 27z" />
<glyph unicode="c" horiz-adv-x="915" d="M530 -10q-202 0 -309.5 112t-107.5 316q0 207 106.5 315.5t310.5 108.5q149 0 263 -41q16 -7 16 -19l-6 -32q-4 -15 -19 -15q-104 39 -231 39q-185 0 -277 -79.5t-92 -276.5q0 -101 27 -173t78 -112.5t116 -59t148 -18.5q111 0 231 45q16 0 19 -14l6 -33q0 -7 -2.5 -10 t-13.5 -8q-125 -45 -263 -45z" />
<glyph unicode="d" horiz-adv-x="1001" d="M184 430q0 -185 86 -280t254 -95q139 0 262 62v559q-62 50 -159.5 74t-147.5 24q-43 0 -78 -5.5t-69.5 -19.5t-60.5 -39.5t-46 -62.5t-30.5 -92t-10.5 -125zM858 1141v-1059q0 -16 -20 -27q-144 -65 -314 -65q-202 0 -306.5 116.5t-104.5 323.5q0 199 95.5 305.5 t258.5 106.5q165 0 319 -84v383q0 22 23 22h27q22 0 22 -22z" />
<glyph unicode="e" horiz-adv-x="935" d="M494 774q-124 0 -202 -59.5t-108 -214.5q52 -33 156.5 -60.5t155.5 -27.5q131 0 191.5 36.5t60.5 139.5q0 51 -15 87t-36.5 55t-58.5 29t-67 12.5t-77 2.5zM784 109q15 0 19 -15l6 -33q0 -7 -2.5 -10t-13.5 -8q-135 -53 -261 -53q-202 0 -310.5 114.5t-108.5 319.5 q0 194 97.5 306t283.5 112q162 0 243.5 -59t81.5 -187q0 -69 -23 -119t-64.5 -78.5t-93.5 -41.5t-116 -13q-151 0 -338 82q0 -178 97 -274.5t256 -96.5q106 0 247 54z" />
<glyph unicode="f" horiz-adv-x="724" d="M670 1190q-36 6 -56 6q-57 0 -101 -9t-72.5 -22t-49 -36t-30.5 -42.5t-15.5 -51t-6.5 -51t-1 -52.5v-103h283q22 0 22 -22v-27q0 -22 -22 -22h-283v-735q0 -23 -23 -23h-26q-23 0 -23 23v735h-172q-22 0 -22 22v27q0 22 22 22h172v89q0 187 77.5 265.5t254.5 78.5 q49 0 76 -9q11 -5 15.5 -9.5t4.5 -14.5l-6 -25q-4 -14 -18 -14z" />
<glyph unicode="g" horiz-adv-x="942" d="M778 819q21 -8 21 -26v-906q0 -46 -7 -89t-30.5 -94.5t-61.5 -88.5t-105.5 -62.5t-156.5 -25.5q-29 0 -55.5 2.5t-67.5 14.5t-70 33t-51 63t-22 100q0 85 49.5 146.5t165.5 129.5q-295 23 -295 371q0 222 137.5 338.5t360.5 116.5q97 0 188 -23zM164 385q0 -57 9 -103 t23.5 -77.5t37 -54.5t46 -36.5t54.5 -21t58 -10t61 -2.5q59 0 127.5 34t107.5 68l39 33v547q-59 12 -160 12q-187 0 -295 -102.5t-108 -286.5zM727 -111v236q-105 -56 -164.5 -89t-120 -67.5t-89 -56t-55 -43.5t-35.5 -41.5t-14 -39t-5 -46.5q0 -69 48 -108.5t173 -39.5 q115 0 188.5 77t73.5 218z" />
<glyph unicode="h" horiz-adv-x="962" d="M768 23v421q0 75 -7 129.5t-22.5 90.5t-34 58.5t-49.5 33.5t-60.5 14.5t-74.5 3.5q-41 0 -87.5 -15t-83.5 -36t-68.5 -42.5t-48.5 -36.5l-17 -15v-606q0 -23 -22 -23h-27q-23 0 -23 23v1118q0 22 23 22h27q22 0 22 -22v-430q55 44 112.5 73.5t104 40.5t71 14t44.5 3 q81 0 139.5 -28t91 -79.5t47.5 -114.5t15 -141v-456q0 -23 -23 -23h-26q-23 0 -23 23z" />
<glyph unicode="i" d="M143 23v784q0 22 23 22h27q22 0 22 -22v-784q0 -23 -22 -23h-27q-23 0 -23 23zM135 961q0 19 12 32t31 13t32 -13t13 -32t-13 -31t-32 -12t-31 12t-12 31z" />
<glyph unicode="j" d="M-209 -416q-20 6 -20 25l6 29q3 14 18 14q70 -8 109 -8q49 0 87.5 13t63 32t42.5 50t26.5 57t13.5 65t5.5 61.5t0.5 57.5v827q0 22 23 22h27q22 0 22 -22v-789q0 -88 -7.5 -152.5t-28 -121.5t-54.5 -92.5t-89.5 -55.5t-131.5 -20q-39 0 -113 8zM135 961q0 19 12 32t31 13 t32 -13t13 -32t-13 -31t-32 -12t-31 12t-12 31z" />
<glyph unicode="k" horiz-adv-x="903" d="M748 23q-61 129 -132 248t-124 190q-122 -54 -277 -86v-352q0 -23 -22 -23h-27q-23 0 -23 23v1118q0 22 23 22h27q22 0 22 -22v-686q98 9 207.5 57.5t200.5 129t120 169.5q7 18 23 18h27q22 0 22 -22q-22 -57 -45 -98t-77.5 -98.5t-135.5 -112.5q106 -149 274 -478 q0 -20 -22 -20h-35q-13 0 -26 23z" />
<glyph unicode="l" horiz-adv-x="411" d="M215 1141v-1035q0 -25 14.5 -37t37 -16.5t26.5 -7.5q6 -6 6 -14v-23q0 -18 -74 -18q-82 0 -82 98v1053q0 22 23 22h27q22 0 22 -22z" />
<glyph unicode="m" horiz-adv-x="1402" d="M1280 532v-509q0 -23 -23 -23h-26q-23 0 -23 23v438q0 57 -2.5 101t-9 77t-13.5 55.5t-21.5 37.5t-26.5 23.5t-35.5 12.5t-42 5t-51.5 1q-83 0 -161.5 -42.5t-107.5 -102.5q15 -67 15 -172v-434q0 -23 -23 -23h-27q-22 0 -22 23v409q0 77 -3 124.5t-13 90t-26.5 64 t-47 37.5t-71 21t-101.5 5q-133 0 -203 -41v-710q0 -23 -22 -23h-27q-23 0 -23 23v747q0 18 21 27q55 21 102.5 31.5t74.5 12t77 1.5q44 -1 70.5 -2.5t62.5 -9t62 -21t55.5 -39t56.5 -61.5q39 46 80.5 75t84 40.5t70 14.5t66.5 3q140 0 197 -76t57 -234z" />
<glyph unicode="n" horiz-adv-x="962" d="M164 797q153 45 307 45q199 0 284 -93.5t85 -293.5v-432q0 -23 -23 -23h-26q-23 0 -23 23v329q0 89 -5 147t-21.5 115t-47 89t-82.5 51.5t-127 19.5q-31 0 -71.5 -2t-103.5 -13.5t-95 -29.5v-706q0 -23 -22 -23h-27q-23 0 -23 23v747q0 15 21 27z" />
<glyph unicode="o" horiz-adv-x="1028" d="M514 55q62 0 112 12.5t83.5 33t59 51t39.5 61t22.5 69.5t11 71t2.5 69q0 52 -8.5 99t-31.5 94.5t-58.5 81.5t-95 55.5t-136.5 21.5t-136.5 -21.5t-95 -55.5t-58.5 -81.5t-31.5 -94.5t-8.5 -99q0 -37 2.5 -69t11 -71t22.5 -69.5t39.5 -61t59 -51t83.5 -33t112 -12.5z M514 -10q-199 0 -300 113.5t-101 320.5q0 195 102 306.5t299 111.5t299 -111.5t102 -306.5q0 -207 -101 -320.5t-300 -113.5z" />
<glyph unicode="p" horiz-adv-x="985" d="M477 774q-196 0 -262 -35v-667q146 -17 238 -17q43 0 76.5 2.5t72 11.5t67.5 24.5t57 43t45.5 64.5t28.5 91.5t11 123.5q0 200 -79 279t-255 79zM215 8v-387q0 -22 -22 -22h-27q-23 0 -23 22v1153q0 18 21 27q113 41 307 41q412 0 412 -426q0 -206 -104.5 -316 t-307.5 -110q-100 0 -256 18z" />
<glyph unicode="q" horiz-adv-x="985" d="M508 774q-176 0 -255 -79t-79 -279q0 -69 11 -123.5t28.5 -91.5t45.5 -64.5t57 -43t67.5 -24.5t72 -11.5t76.5 -2.5q92 0 238 17v667q-66 35 -262 35zM770 -379v387q-156 -18 -256 -18q-203 0 -307.5 110t-104.5 316q0 426 412 426q194 0 307 -41q21 -9 21 -27v-1153 q0 -22 -23 -22h-26q-23 0 -23 22z" />
<glyph unicode="r" horiz-adv-x="724" d="M143 23v743q0 18 21 27q123 49 254 49q140 0 239 -39q17 -7 17 -19l-6 -32q-4 -15 -19 -15q-94 37 -225 37q-148 0 -209 -47v-704q0 -23 -22 -23h-27q-23 0 -23 23z" />
<glyph unicode="s" horiz-adv-x="854" d="M164 31q-19 8 -19 20l9 35q4 14 18 14q60 -20 136 -32.5t114 -12.5q27 0 43 0.5t47.5 3t52 8t46.5 16.5t41.5 26.5t26.5 40t11 55.5q0 50 -32 84t-83.5 52.5t-113 33t-123.5 31.5t-113.5 41.5t-83.5 71t-32 112.5q0 103 77.5 157t259.5 54q101 0 203 -21q17 -7 17 -18 v-29q-4 -14 -19 -14q-138 14 -184 14q-70 0 -117 -5t-87 -19.5t-59.5 -43t-19.5 -71.5q0 -50 32 -84.5t83.5 -54.5t113.5 -35.5t124 -33t113.5 -41.5t83.5 -68t32 -105q0 -111 -79.5 -167t-250.5 -56q-55 0 -135.5 9t-132.5 32z" />
<glyph unicode="t" horiz-adv-x="780" d="M692 -4q-34 -6 -108 -6q-75 0 -130.5 21t-89.5 57t-54.5 93.5t-28 122t-7.5 150.5v324h-180q-22 0 -22 22v27q0 22 22 22h180l11 312q0 22 20 22h19q22 0 22 -22v-312h289q22 0 22 -22v-27q0 -22 -22 -22h-289v-330q0 -38 0.5 -62t3.5 -59.5t8 -58.5t15 -52t24 -47.5 t35 -38t48 -30.5t64 -18t81 -7q31 0 59 4q14 0 18 -14l7 -27q0 -15 -17 -22z" />
<glyph unicode="u" horiz-adv-x="964" d="M821 807v-701q0 -17 -20 -28q-134 -88 -301 -88q-202 0 -289.5 76.5t-87.5 269.5v471q0 22 22 22h27q23 0 23 -22v-395q0 -93 8.5 -152.5t27 -102t55 -63.5t85 -30t125.5 -9q153 0 254 76v676q0 22 22 22h27q22 0 22 -22z" />
<glyph unicode="v" horiz-adv-x="897" d="M479 0h-61q-21 0 -35 23l-311 784q0 22 22 22h27q20 0 29 -22l299 -752l299 752q9 22 28 22h27q22 0 22 -22l-311 -784q-14 -23 -35 -23z" />
<glyph unicode="w" horiz-adv-x="1294" d="M1143 803q28 -200 28 -301q0 -51 -0.5 -83t-2.5 -77.5t-6 -74.5t-10.5 -66.5t-17.5 -60.5t-26 -50t-36 -43t-47 -30.5t-59.5 -20.5t-74.5 -6q-152 0 -223 119q-30 -41 -74.5 -68t-90 -36.5t-67.5 -12t-41 -2.5q-62 0 -107 17t-73 46t-44 74t-22 93t-6 112v475q0 22 23 22 h27q22 0 22 -22v-445q0 -62 4.5 -108t11.5 -79t21 -55t28.5 -35t39.5 -19.5t47.5 -8.5t58.5 -2q114 0 207 107q-21 103 -21 207v438q0 22 23 22h27q22 0 22 -22v-424q0 -89 11 -150.5t27.5 -96t45.5 -53t56 -23.5t69 -5q30 0 55 4t44.5 15t34.5 22t26.5 32.5t19 39.5t13 51 t8.5 57.5t4 68t1.5 74.5t0.5 85q0 95 -31 303q0 22 23 22h26q10 0 17.5 -7.5t7.5 -18.5z" />
<glyph unicode="x" horiz-adv-x="815" d="M659 23l-251 344l-252 -344q-16 -23 -41 -23h-21q-22 0 -22 23l282 393l-282 391q0 22 22 22h21q25 0 41 -22l252 -344l251 344q16 22 41 22h21q22 0 22 -22l-282 -391l282 -393q0 -23 -22 -23h-21q-25 0 -41 23z" />
<glyph unicode="y" horiz-adv-x="960" d="M745 215v592q0 22 23 22h27q22 0 22 -22v-920q0 -46 -7 -89t-30.5 -94.5t-61 -88.5t-105 -62.5t-156.5 -25.5q-29 0 -55.5 2.5t-68 14.5t-70.5 33t-51 63t-22 100q0 85 50 146.5t166 129.5q-141 11 -212 99.5t-71 271.5v420q0 22 22 22h27q23 0 23 -22v-422 q0 -79 16 -136.5t40 -89.5t62.5 -50.5t74 -23.5t83.5 -5q59 0 127.5 34t107.5 68zM745 -111v236q-105 -56 -164.5 -89t-120 -67.5t-89 -56t-55 -43.5t-35.5 -41.5t-14 -39t-5 -46.5q0 -69 48 -108.5t173 -39.5q115 0 188.5 77t73.5 218z" />
<glyph unicode="z" horiz-adv-x="819" d="M102 23v57l525 678h-502q-23 0 -23 22v27q0 22 23 22h569q23 0 23 -22v-49l-533 -686h510q23 0 23 -23v-26q0 -23 -23 -23h-569q-23 0 -23 23z" />
<glyph unicode="{" horiz-adv-x="1009" d="M188 520q-24 0 -24 23v20q0 23 22 23q47 3 83 10t73 24t61 43.5t39 71t15 103.5v200q0 83 6 142t23 113.5t47 87.5t78.5 52t115.5 19q40 0 102 -10q17 -7 17 -19l-6 -32q-4 -15 -19 -15q-29 10 -80 10q-44 0 -78.5 -12.5t-56.5 -30t-37.5 -47t-23 -53.5t-12 -60t-5 -55.5 t-0.5 -50.5v-264q0 -29 -1 -46t-9 -48.5t-23 -56t-45 -55t-73 -58.5q151 -54 151 -256v-221q0 -23 0.5 -38t2.5 -42.5t5.5 -46.5t11 -44.5t18 -43.5t26.5 -37.5t37 -31t49.5 -19t62.5 -7.5q48 0 80 11q15 0 19 -15l6 -32q0 -12 -17 -19q-62 -10 -102 -10q-67 0 -115.5 19 t-78.5 52t-47 87.5t-23 113.5t-6 142v159q0 68 -22 116t-62.5 75t-84 40t-100.5 19z" />
<glyph unicode="|" horiz-adv-x="399" d="M236 1427v-1708q0 -22 -23 -22h-27q-22 0 -22 22v1708q0 23 22 23h27q23 0 23 -23z" />
<glyph unicode="}" horiz-adv-x="1009" d="M821 520q-45 -5 -81 -13.5t-72 -26.5t-60.5 -44.5t-39.5 -68.5t-15 -97v-159q0 -83 -6 -142t-23 -113.5t-47 -87.5t-78.5 -52t-115.5 -19q-41 0 -103 10q-16 7 -16 19l6 32q4 15 18 15q32 -11 80 -11q34 0 62.5 7.5t49.5 19t37 31t26.5 37.5t18 43.5t11 44.5t5.5 46.5 t2.5 42.5t0.5 38v221q0 202 152 256q-53 34 -86.5 70t-46.5 73.5t-16 61t-3 59.5v264q0 31 -0.5 50.5t-5 55.5t-12 60t-23 53.5t-37.5 47t-56.5 30t-78.5 12.5q-51 0 -80 -10q-14 0 -18 15l-6 32q0 12 16 19q62 10 103 10q67 0 115.5 -19t78.5 -52t47 -87.5t23 -113.5 t6 -142v-200q0 -73 21.5 -123.5t62 -76.5t84 -37.5t102.5 -14.5q23 0 23 -23v-20q0 -10 -7 -16.5t-18 -6.5z" />
<glyph unicode="~" horiz-adv-x="872" d="M274 430q-52 0 -84 -18q-8 -4 -16 -4t-14 6q-17 33 -17 37q0 9 7 12q57 35 124 35q55 0 160.5 -36t163.5 -36q52 0 84 18q10 5 16 5q8 0 15 -7q16 -31 16 -36q0 -10 -6 -13q-57 -35 -125 -35q-55 0 -160.5 36t-163.5 36z" />
<glyph unicode="&#xa1;" horiz-adv-x="374" d="M152 12l6 953q0 22 22 22h17q22 0 22 -22l4 -953q0 -22 -22 -22h-27q-22 0 -22 22zM143 1118q0 19 12 32t31 13t32 -13t13 -32t-13 -31t-32 -12t-31 12t-12 31z" />
<glyph unicode="&#xa2;" horiz-adv-x="1064" d="M657 1374v-207q130 0 246 -43q17 -7 17 -18l-7 -33q-3 -14 -18 -14q-116 41 -215 41h-23v-1045q47 0 116.5 11.5t123.5 33.5q15 0 18 -14l7 -33q0 -11 -17 -18q-101 -41 -248 -45v-228q0 -22 -22 -22h-27q-22 0 -22 22v232q-94 9 -171 44.5t-139.5 102t-97.5 177 t-35 255.5q0 129 23.5 230t63 165.5t97.5 108t120.5 63t138.5 25.5v209q0 23 22 23h27q22 0 22 -23zM215 573q0 -113 24 -202t60.5 -143.5t88 -92t98.5 -53.5t100 -23v1037q-55 -5 -101 -18t-98 -48.5t-88 -90t-60 -148.5t-24 -218z" />
<glyph unicode="&#xa3;" horiz-adv-x="1099" d="M647 500h-276v-434h563q22 0 22 -23v-20q0 -23 -22 -23h-612q-23 0 -23 23v477h-133q-23 0 -23 22v23q0 22 23 22h133v140q0 212 108 336t308 124q109 0 223 -41q11 -5 13.5 -8t2.5 -10l-6 -33q-4 -14 -18 -14q-104 39 -193 39q-366 0 -366 -393v-140h276q23 0 23 -22 v-23q0 -22 -23 -22z" />
<glyph unicode="&#xa4;" horiz-adv-x="987" d="M492 186q84 0 141 56.5t57 138.5t-57 139.5t-141 57.5q-82 0 -138.5 -57.5t-56.5 -139.5t56.5 -138.5t138.5 -56.5zM494 127q-104 0 -179 72l-118 -115q-8 -8 -15 -8q-6 0 -14 8l-18 16q-7 7 -7 15q0 7 9 16l122 119q-36 56 -36 133q0 76 38 135l-124 123q-9 9 -9 16 q0 8 7 15l18 16q8 8 14 8q7 0 15 -8l122 -119q73 70 175 70q101 0 174 -70l123 119q8 8 14 8t14 -8l19 -16q6 -6 6 -15q0 -8 -8 -16l-125 -123q39 -61 39 -135q0 -75 -37 -133l123 -119q8 -8 8 -16q0 -9 -6 -15l-19 -16q-8 -8 -14 -8t-14 8l-119 115q-75 -72 -178 -72z" />
<glyph unicode="&#xa5;" horiz-adv-x="1140" d="M803 137h-197v-114q0 -23 -22 -23h-27q-22 0 -22 23v114h-199q-23 0 -23 23v22q0 23 23 23h199v104l-27 56h-172q-23 0 -23 22v23q0 22 23 22h141l-334 709q0 22 23 22h27q19 0 28 -22l348 -738l351 738q9 22 28 22h27q22 0 22 -22l-333 -709h139q22 0 22 -22v-23 q0 -22 -22 -22h-172l-25 -56v-104h197q22 0 22 -23v-22q0 -23 -22 -23z" />
<glyph unicode="&#xa6;" d="M215 1427v-630q0 -23 -22 -23h-27q-23 0 -23 23v630q0 23 23 23h27q22 0 22 -23zM215 350v-631q0 -22 -22 -22h-27q-23 0 -23 22v631q0 23 23 23h27q22 0 22 -23z" />
<glyph unicode="&#xa7;" horiz-adv-x="940" d="M711 369q86 -59 86 -156q0 -111 -79.5 -167t-250.5 -56q-55 0 -135.5 9t-132.5 32q-19 8 -19 20l8 35q4 14 19 14q60 -20 136 -32.5t114 -12.5q27 0 43 0.5t47.5 3t52 8t46.5 16.5t41.5 26.5t26.5 40t11 55.5q0 44 -25 76t-66 49.5t-93 33t-107 26t-107 29.5t-93 43.5 t-66 67.5t-25 101q0 108 86 160q-86 62 -86 165t78 157t260 54q105 0 203 -20q16 -7 16 -19v-28q-4 -15 -18 -15q-148 15 -184 15q-70 0 -117 -5t-87 -19.5t-59.5 -43t-19.5 -71.5q0 -50 32 -84.5t83.5 -54.5t113.5 -35.5t124 -33t113.5 -41.5t83.5 -68t32 -105 q0 -116 -86 -170zM725 530q0 72 -68 111t-211 72q-8 2 -42.5 10.5t-57.5 12.5t-45 5q-33 0 -59.5 -27.5t-26.5 -92.5q0 -43 41 -79t106.5 -59.5t132 -37.5t132.5 -21q48 0 72.5 24.5t25.5 81.5z" />
<glyph unicode="&#xa8;" horiz-adv-x="628" d="M143 1124q0 19 12 31t31 12t32 -12t13 -31t-13 -32t-32 -13t-31 13t-12 32zM397 1124q0 19 12 31t31 12t32 -12t13 -31t-13 -32t-32 -13t-31 13t-12 32z" />
<glyph unicode="&#xa9;" horiz-adv-x="1464" d="M731 1167q160 0 296 -78.5t215 -214.5t79 -296t-79 -295.5t-215 -214t-296 -78.5t-295.5 78.5t-214 214t-78.5 295.5t78.5 296t214 214.5t295.5 78.5zM731 49q143 0 265 71t193 193t71 265t-71 264.5t-193 192.5t-265 71t-264.5 -71t-192.5 -192.5t-71 -264.5t71 -265 t192.5 -193t264.5 -71zM733 238q-151 0 -231 83t-80 236q0 154 79.5 234.5t231.5 80.5q113 0 195 -30q12 -4 12 -15l-4 -39q0 -10 -14 -10q-71 29 -172 29q-127 0 -191.5 -53.5t-64.5 -196.5q0 -75 19.5 -126.5t57 -78.5t80.5 -38t99 -11q85 0 172 33q14 0 14 -10l4 -41 q0 -11 -12 -15q-95 -32 -195 -32z" />
<glyph unicode="&#xaa;" horiz-adv-x="817" d="M604 670v426q-40 4 -61 4q-150 0 -240 -76t-90 -188q0 -66 20.5 -113t52.5 -69t60.5 -31t56.5 -9q46 0 96.5 14t77.5 28zM662 1147q12 -4 12 -19v-548q0 -37 -17 -37h-26q-19 0 -21 20l-6 41q-33 -23 -82 -37t-77.5 -17t-49.5 -3q-68 0 -119 25t-79 67.5t-41 91.5 t-13 105q0 152 106 241.5t300 89.5q59 0 113 -20z" />
<glyph unicode="&#xab;" horiz-adv-x="950" d="M254 31l-104 323q-7 21 -7 29v55q0 8 7 29l104 317q12 31 29 31h26q9 0 13 -4.5t5 -10t1 -16.5l-105 -317q-6 -18 -6 -29v-55q0 -11 6 -29l105 -323q0 -11 -1 -16.5t-5 -10t-13 -4.5h-26q-17 0 -29 31zM733 31l-104 323q-6 18 -6 29v55q0 11 6 29l104 317q12 31 29 31h26 q9 0 13 -4.5t5 -10t1 -16.5l-105 -317q-6 -18 -6 -29v-55q0 -11 6 -29l105 -323q0 -11 -1 -16.5t-5 -10t-13 -4.5h-26q-17 0 -29 31z" />
<glyph unicode="&#xac;" horiz-adv-x="944" d="M166 420h612q23 0 23 -23v-291q0 -22 -23 -22h-26q-23 0 -23 22v248h-563q-23 0 -23 23v20q0 23 23 23z" />
<glyph unicode="&#xad;" horiz-adv-x="387" />
<glyph unicode="&#xae;" horiz-adv-x="1464" d="M731 1167q160 0 296 -78.5t215 -214.5t79 -296t-79 -295.5t-215 -214t-296 -78.5t-295.5 78.5t-214 214t-78.5 295.5t78.5 296t214 214.5t295.5 78.5zM731 49q143 0 265 71t193 193t71 265t-71 264.5t-193 192.5t-265 71t-264.5 -71t-192.5 -192.5t-71 -264.5t71 -265 t192.5 -193t264.5 -71zM584 580h172q68 0 99.5 25t31.5 104q0 129 -131 129h-172v-258zM854 299l-84 215h-186v-231q0 -23 -23 -23h-26q-23 0 -23 23v598q0 22 23 22h217q206 0 206 -194q0 -152 -110 -189l59 -158q18 -41 25 -43q6 -1 9.5 -5t4.5 -8v-3v-29q0 -14 -41 -14 q-35 0 -51 39z" />
<glyph unicode="&#xaf;" horiz-adv-x="813" d="M647 1096h-481q-23 0 -23 22v23q0 22 23 22h481q23 0 23 -22v-23q0 -22 -23 -22z" />
<glyph unicode="&#xb0;" horiz-adv-x="655" d="M143 975q0 96 50 144t135 48t134.5 -48t49.5 -144q0 -95 -49.5 -143t-134.5 -48t-135 48t-50 143zM446 975q0 48 -22 78t-46.5 38.5t-49.5 8.5q-18 0 -36 -5.5t-37.5 -18t-31.5 -38.5t-12 -63q0 -36 12 -62t31.5 -38t37.5 -17.5t36 -5.5q25 0 49.5 8.5t46.5 38t22 76.5z " />
<glyph unicode="&#xb1;" horiz-adv-x="800" d="M436 428v-213q0 -22 -22 -22h-27q-22 0 -22 22v213h-199q-23 0 -23 23v22q0 23 23 23h199v213q0 22 22 22h27q22 0 22 -22v-213h199q22 0 22 -23v-22q0 -23 -22 -23h-199zM635 0h-469q-23 0 -23 23v22q0 23 23 23h469q22 0 22 -23v-22q0 -23 -22 -23z" />
<glyph unicode="&#xb2;" horiz-adv-x="735" d="M143 573v72q0 48 28 90t70 70.5t91.5 56t91.5 48t70 44.5t28 47q0 28 -12 48t-27.5 29.5t-42.5 14.5t-43.5 6t-44.5 1q-1 0 -141 -13q-31 0 -33 17l-2 24q0 7 7.5 13t17.5 8q62 18 151 18q129 0 184.5 -42.5t55.5 -127.5q0 -39 -39 -74.5t-94.5 -64.5t-111.5 -58t-95 -67 t-39 -80v-39h342q11 0 19 -6t8 -16v-23q0 -10 -8 -16t-19 -6h-381q-11 0 -21 7.5t-10 18.5z" />
<glyph unicode="&#xb3;" horiz-adv-x="702" d="M358 823h-73q-27 0 -27 19v30q0 19 27 19h47q50 0 103.5 31t53.5 71q0 30 -13 51t-30 31.5t-44 16.5t-44.5 7t-42.5 1q-13 0 -141 -17q-26 0 -29 23q0 4 -1 9.5t-1 8.5q0 13 25 23q79 20 156 20q130 0 182.5 -45.5t52.5 -134.5q0 -40 -23 -74t-61 -49q40 -19 62 -62.5 t22 -86.5q0 -86 -65 -128t-179 -42q-76 0 -147 18q-25 7 -25 23l2 18q2 23 29 23q113 -15 129 -15q88 0 137 23t49 86q0 46 -26.5 74t-104.5 28z" />
<glyph unicode="&#xb4;" horiz-adv-x="534" d="M147 969l177 184q10 10 22 10q11 0 19 -4l20 -24q6 -9 6 -23t-2 -16l-184 -158q-11 -8 -27 -8q-35 0 -35 26q0 5 4 13z" />
<glyph unicode="&#xb5;" horiz-adv-x="985" d="M842 807v-701q0 -16 -21 -28q-134 -88 -301 -88q-225 0 -305 92v-481q0 -23 -22 -23h-27q-23 0 -23 23v1206q0 22 23 22h27q22 0 22 -22v-438q0 -100 14 -160t51 -95t91 -47t145 -12q153 0 254 76v676q0 22 23 22h26q23 0 23 -22z" />
<glyph unicode="&#xb6;" horiz-adv-x="1193" d="M475 1163h553q23 0 23 -22v-1118q0 -23 -23 -23h-27q-22 0 -22 23v1073h-393v-1073q0 -23 -23 -23h-26q-23 0 -23 23v552q-97 0 -170.5 24t-116 65.5t-63.5 92.5t-21 111q0 128 87 211.5t245 83.5z" />
<glyph unicode="&#xb7;" horiz-adv-x="374" d="M143 303q0 19 12 31t31 12t32 -12t13 -31t-13 -32t-32 -13t-31 13t-12 32z" />
<glyph unicode="&#xb8;" horiz-adv-x="587" d="M438 -33q6 -41 6 -76q0 -210 -178 -210q-94 0 -123 6v34q0 27 23 27q16 -2 49 -2q95 0 126.5 25t31.5 104q0 53 -6 92q0 23 22 23h27q22 0 22 -23z" />
<glyph unicode="&#xb9;" horiz-adv-x="581" d="M152 1049l194 114h68q10 0 17 -6.5t7 -17.5v-568q0 -11 -7 -17.5t-17 -6.5h-25q-11 0 -17.5 6.5t-6.5 17.5v523l-197 -107q-10 0 -17.5 8t-7.5 17v16q0 12 9 21z" />
<glyph unicode="&#xba;" horiz-adv-x="655" d="M143 975q0 96 50 144t135 48t134.5 -48t49.5 -144q0 -95 -49.5 -143t-134.5 -48t-135 48t-50 143zM446 975q0 48 -22 78t-46.5 38.5t-49.5 8.5q-18 0 -36 -5.5t-37.5 -18t-31.5 -38.5t-12 -63q0 -36 12 -62t31.5 -38t37.5 -17.5t36 -5.5q25 0 49.5 8.5t46.5 38t22 76.5z " />
<glyph unicode="&#xbb;" horiz-adv-x="950" d="M801 354l-105 -323q-12 -31 -28 -31h-27q-12 0 -15 7t-3 24l104 323q6 18 6 29v55q0 11 -6 29l-104 317q0 11 0.5 16.5t4.5 10t13 4.5h27q16 0 28 -31l105 -317q6 -18 6 -29v-55q0 -11 -6 -29zM322 354l-105 -323q-12 -31 -29 -31h-26q-9 0 -13 4.5t-5 10t-1 16.5 l105 323q6 18 6 29v55q0 11 -6 29l-105 317q0 11 1 16.5t5 10t13 4.5h26q17 0 29 -31l105 -317q6 -18 6 -29v-55q0 -11 -6 -29z" />
<glyph unicode="&#xbc;" horiz-adv-x="1507" d="M1042 1143l-546 -1123q-8 -20 -25 -20h-29q-22 0 -22 20l549 1123q8 20 24 20h29q20 0 20 -20zM152 1049l194 114h68q10 0 17 -6.5t7 -17.5v-568q0 -11 -7 -17.5t-17 -6.5h-25q-11 0 -17.5 6.5t-6.5 17.5v523l-197 -107q-10 0 -17.5 8t-7.5 17v16q0 12 9 21zM911 209h289 v387zM1346 135h-72v-110q0 -11 -7 -18t-18 -7h-24q-11 0 -18 7t-7 18v110h-350q-10 0 -18.5 9t-8.5 20v51l299 397q7 10 19 18.5t22 8.5h82q29 -3 29 -27v-403h72q10 0 17 -7t7 -18v-24q0 -11 -7 -18t-17 -7z" />
<glyph unicode="&#xbd;" horiz-adv-x="1538" d="M1042 1143l-546 -1123q-8 -20 -25 -20h-29q-22 0 -22 20l549 1123q8 20 24 20h29q20 0 20 -20zM152 1049l194 114h68q10 0 17 -6.5t7 -17.5v-568q0 -11 -7 -17.5t-17 -6.5h-25q-11 0 -17.5 6.5t-6.5 17.5v523l-197 -107q-10 0 -17.5 8t-7.5 17v16q0 12 9 21zM946 98v-71 q0 -11 10 -19t21 -8h381q11 0 18.5 6.5t7.5 16.5v22q0 10 -7.5 16.5t-18.5 6.5h-342v38q0 42 39 80t95 67.5t111.5 58t94.5 64.5t39 75q0 85 -55.5 127.5t-184.5 42.5q-86 0 -151 -19q-25 -4 -25 -20l2 -25q2 -16 33 -16q129 12 141 12q24 0 37 -0.5t36.5 -3t37.5 -9 t29.5 -16.5t22.5 -27.5t7 -41.5q0 -27 -39 -55t-94.5 -56t-111.5 -60.5t-95 -81t-39 -104.5z" />
<glyph unicode="&#xbe;" horiz-adv-x="1564" d="M1094 1143l-547 -1123q-8 -20 -25 -20h-28q-23 0 -23 20l549 1123q8 20 24 20h29q21 0 21 -20zM358 823h-73q-27 0 -27 19v30q0 19 27 19h47q50 0 103.5 31t53.5 71q0 30 -13 51t-30 31.5t-44 16.5t-44.5 7t-42.5 1q-13 0 -141 -17q-26 0 -29 23q0 4 -1 9.5t-1 8.5 q0 13 25 23q79 20 156 20q130 0 182.5 -45.5t52.5 -134.5q0 -40 -23 -74t-61 -49q40 -19 62 -62.5t22 -86.5q0 -86 -65 -128t-179 -42q-76 0 -147 18q-25 7 -25 23l2 18q2 23 29 23q113 -15 129 -15q88 0 137 23t49 86q0 46 -26.5 74t-104.5 28zM963 209h288v387zM1397 135 h-72v-110q0 -11 -7.5 -18t-17.5 -7h-24q-10 0 -17.5 7t-7.5 18v110h-350q-10 0 -18.5 9t-8.5 20v51l300 397q18 27 40 27h82q29 -3 29 -27v-403h72q10 0 17 -7t7 -18v-24q0 -11 -7 -18t-17 -7z" />
<glyph unicode="&#xbf;" horiz-adv-x="909" d="M741 12q-115 -22 -235 -22q-71 0 -127 8t-93.5 21t-65 33.5t-42 41t-23 49t-10.5 51.5t-2 54q0 63 22.5 113t59 82t80 59.5t87 53.5t80 56t59 75.5t22.5 103.5v53q0 22 22 22h27q23 0 23 -22v-90q0 -55 -22.5 -99.5t-59 -74.5t-80 -56.5l-87 -53t-80 -56t-59 -73 t-22.5 -97.5q0 -38 6 -64t24 -51t49.5 -39.5t83.5 -23.5t126 -9q114 0 239 21q23 0 23 -23v-18q0 -19 -25 -25zM633 1122q0 -19 -12 -31t-31 -12t-32 12t-13 31t13 32t32 13t31 -13t12 -32z" />
<glyph unicode="&#xc0;" horiz-adv-x="1167" d="M1004 35l-105 262h-641l-108 -274q-10 -23 -29 -23h-27q-22 0 -22 23l442 1118q14 22 35 22h61q21 0 35 -22l412 -1043q16 -41 37 -41q5 0 8 -3.5t4 -7.5v-3v-31q0 -14 -49 -14q-38 0 -53 37zM580 1108l-297 -746h591zM520 1522l176 -185q4 -8 4 -12q0 -27 -34 -27 q-15 0 -27 9l-184 157q-2 2 -2 17q0 13 6 22l20 25q8 4 19 4q12 0 22 -10z" />
<glyph unicode="&#xc1;" horiz-adv-x="1167" d="M1004 35l-105 262h-641l-108 -274q-10 -23 -29 -23h-27q-22 0 -22 23l442 1118q14 22 35 22h61q21 0 35 -22l412 -1043q16 -41 37 -41q5 0 8 -3.5t4 -7.5v-3v-31q0 -14 -49 -14q-38 0 -53 37zM580 1108l-297 -746h591zM457 1337l176 185q10 10 22 10q11 0 19 -4l20 -25 q6 -9 6 -22q0 -15 -2 -17l-184 -157q-12 -9 -27 -9q-34 0 -34 27q0 4 4 12z" />
<glyph unicode="&#xc2;" horiz-adv-x="1167" d="M1004 35l-105 262h-641l-108 -274q-10 -23 -29 -23h-27q-22 0 -22 23l442 1118q14 22 35 22h61q21 0 35 -22l412 -1043q16 -41 37 -41q5 0 8 -3.5t4 -7.5v-3v-31q0 -14 -49 -14q-38 0 -53 37zM580 1108l-297 -746h591zM547 1554h61q21 0 35 -22l109 -211q0 -23 -23 -23 h-27q-15 0 -28 23l-96 180l-97 -180q-13 -23 -28 -23h-27q-23 0 -23 23l109 211q14 22 35 22z" />
<glyph unicode="&#xc3;" horiz-adv-x="1167" d="M1004 35l-105 262h-641l-108 -274q-10 -23 -29 -23h-27q-22 0 -22 23l442 1118q14 22 35 22h61q21 0 35 -22l412 -1043q16 -41 37 -41q5 0 8 -3.5t4 -7.5v-3v-31q0 -14 -49 -14q-38 0 -53 37zM580 1108l-297 -746h591zM418 1370q-52 0 -84 -18q-8 -4 -17 -4q-8 0 -14 6 q-16 31 -16 37q0 9 6 12q57 35 125 35q55 0 160 -36t163 -36q52 0 84 18q10 5 17 5t14 -7q16 -31 16 -36q0 -10 -6 -13q-57 -35 -125 -35q-55 0 -160 36t-163 36z" />
<glyph unicode="&#xc4;" horiz-adv-x="1167" d="M1004 35l-105 262h-641l-108 -274q-10 -23 -29 -23h-27q-22 0 -22 23l442 1118q14 22 35 22h61q21 0 35 -22l412 -1043q16 -41 37 -41q5 0 8 -3.5t4 -7.5v-3v-31q0 -14 -49 -14q-38 0 -53 37zM580 1108l-297 -746h591zM410 1343q0 19 12 31t31 12t32 -12t13 -31t-13 -32 t-32 -13t-31 13t-12 32zM664 1343q0 19 12 31t31 12t32 -12t13 -31t-13 -32t-32 -13t-31 13t-12 32z" />
<glyph unicode="&#xc5;" horiz-adv-x="1167" d="M1004 35l-105 262h-641l-108 -274q-10 -23 -29 -23h-27q-22 0 -22 23l442 1118q14 22 35 22h61q21 0 35 -22l412 -1043q16 -41 37 -41q5 0 8 -3.5t4 -7.5v-3v-31q0 -14 -49 -14q-38 0 -53 37zM580 1108l-297 -746h591zM395 1489q0 96 50 144t135 48t134.5 -48t49.5 -144 q0 -95 -49.5 -143t-134.5 -48t-135 48t-50 143zM698 1489q0 48 -22 78t-46.5 38.5t-49.5 8.5q-18 0 -36 -5.5t-37.5 -18t-31.5 -38.5t-12 -63q0 -36 12 -62t31.5 -38t37.5 -17.5t36 -5.5q25 0 49.5 8.5t46.5 38t22 76.5z" />
<glyph unicode="&#xc6;" horiz-adv-x="1722" d="M1587 1096h-588v-486h451q23 0 23 -22v-21q0 -22 -23 -22h-451v-479h588q23 0 23 -23v-20q0 -23 -23 -23h-637q-22 0 -22 23v276h-596l-201 -276q-17 -23 -39 -23h-29q-22 0 -22 23l825 1114q20 26 49 26h672q23 0 23 -22v-23q0 -22 -23 -22zM928 365v733l-547 -733h547z " />
<glyph unicode="&#xc7;" horiz-adv-x="983" d="M874 35q-87 -37 -225 -45q0 -2 1 -6.5t1 -6.5q6 -64 6 -98q0 -211 -178 -211q-94 0 -123 6v35q0 27 23 27q16 -2 49 -2q95 0 126.5 25t31.5 104q0 65 -13 129q-77 5 -143.5 26.5t-125.5 66.5t-100.5 110t-66 161.5t-24.5 216.5q0 141 28 247.5t74 171.5t113.5 105t138 55 t156.5 15q141 0 249 -43q17 -7 17 -18l-6 -33q-3 -14 -19 -14q-116 41 -215 41q-35 0 -56 -0.5t-62.5 -5.5t-69.5 -13.5t-67 -27t-66 -44t-56.5 -66t-47 -91.5t-29 -122.5t-11.5 -156.5q0 -94 16.5 -171t43.5 -130t65 -93t76.5 -63t83.5 -37.5t81 -19t73 -4.5q47 0 117 11.5 t126 33.5q16 0 19 -14l6 -33q0 -11 -17 -18z" />
<glyph unicode="&#xc8;" horiz-adv-x="917" d="M215 66h588q22 0 22 -23v-20q0 -23 -22 -23h-637q-23 0 -23 23v1118q0 22 23 22h637q22 0 22 -22v-23q0 -22 -22 -22h-588v-486h451q22 0 22 -22v-21q0 -22 -22 -22h-451v-479zM449 1522l176 -185q4 -8 4 -12q0 -27 -35 -27q-15 0 -27 9l-184 157q-2 2 -2 17q0 13 6 22 l21 25q8 4 18 4q13 0 23 -10z" />
<glyph unicode="&#xc9;" horiz-adv-x="917" d="M215 66h588q22 0 22 -23v-20q0 -23 -22 -23h-637q-23 0 -23 23v1118q0 22 23 22h637q22 0 22 -22v-23q0 -22 -22 -22h-588v-486h451q22 0 22 -22v-21q0 -22 -22 -22h-451v-479zM385 1337l176 185q10 10 23 10q10 0 18 -4l21 -25q6 -9 6 -22q0 -15 -2 -17l-185 -157 q-12 -9 -26 -9q-35 0 -35 27q0 4 4 12z" />
<glyph unicode="&#xca;" horiz-adv-x="917" d="M215 66h588q22 0 22 -23v-20q0 -23 -22 -23h-637q-23 0 -23 23v1118q0 22 23 22h637q22 0 22 -22v-23q0 -22 -22 -22h-588v-486h451q22 0 22 -22v-21q0 -22 -22 -22h-451v-479zM457 1554h61q21 0 35 -22l109 -211q0 -23 -23 -23h-27q-15 0 -28 23l-97 180l-96 -180 q-13 -23 -29 -23h-26q-23 0 -23 23l109 211q14 22 35 22z" />
<glyph unicode="&#xcb;" horiz-adv-x="917" d="M215 66h588q22 0 22 -23v-20q0 -23 -22 -23h-637q-23 0 -23 23v1118q0 22 23 22h637q22 0 22 -22v-23q0 -22 -22 -22h-588v-486h451q22 0 22 -22v-21q0 -22 -22 -22h-451v-479zM313 1343q0 19 12 31t31 12t32 -12t13 -31t-13 -32t-32 -13t-31 13t-12 32zM567 1343 q0 19 12 31t31 12t32 -12t13 -31t-13 -32t-32 -13t-31 13t-12 32z" />
<glyph unicode="&#xcc;" d="M215 1141v-1118q0 -23 -22 -23h-27q-23 0 -23 23v1118q0 22 23 22h27q22 0 22 -22zM123 1522l176 -185q4 -8 4 -12q0 -27 -35 -27q-14 0 -26 9l-185 157q-2 2 -2 17q0 13 6 22l21 25q8 4 18 4q13 0 23 -10z" />
<glyph unicode="&#xcd;" d="M143 23v1118q0 22 23 22h27q22 0 22 -22v-1118q0 -23 -22 -23h-27q-23 0 -23 23zM59 1337l177 185q10 10 22 10q10 0 18 -4l21 -25q6 -9 6 -22q0 -15 -2 -17l-184 -157q-12 -9 -27 -9q-35 0 -35 27q0 4 4 12z" />
<glyph unicode="&#xce;" d="M143 23v1118q0 22 23 22h27q22 0 22 -22v-1118q0 -23 -22 -23h-27q-23 0 -23 23zM147 1554h62q21 0 35 -22l108 -211q0 -23 -22 -23h-27q-16 0 -29 23l-96 180l-96 -180q-13 -23 -29 -23h-26q-23 0 -23 23l109 211q14 22 34 22z" />
<glyph unicode="&#xcf;" d="M143 23v1118q0 22 23 22h27q22 0 22 -22v-1118q0 -23 -22 -23h-27q-23 0 -23 23zM8 1341q0 19 12 31t31 12t32 -12t13 -31t-13 -32t-32 -13t-31 13t-12 32zM262 1341q0 19 12 31t31 12t32 -12t13 -31t-13 -32t-32 -13t-31 13t-12 32z" />
<glyph unicode="&#xd0;" horiz-adv-x="1165" d="M680 0h-391q-23 0 -23 23v512h-172q-22 0 -22 22v23q0 22 22 22h172v539q0 22 23 22h370q189 0 291.5 -100t102.5 -291v-358q0 -196 -94.5 -305t-278.5 -109zM575 535h-237v-469h340q135 0 219 87t84 267v338q0 92 -24.5 159.5t-69 105.5t-98.5 55.5t-119 17.5h-332v-494 h237q23 0 23 -22v-23q0 -22 -23 -22z" />
<glyph unicode="&#xd1;" horiz-adv-x="1163" d="M1020 1141v-1118q0 -23 -23 -23h-69q-24 0 -39 25l-674 1075v-1077q0 -23 -22 -23h-27q-23 0 -23 23v1118q0 22 23 22h76q17 0 28 -16l678 -1084v1078q0 22 23 22h26q23 0 23 -22zM434 1370q-52 0 -84 -18q-8 -4 -16 -4q-9 0 -15 6q-16 31 -16 37q0 9 6 12q57 35 125 35 q55 0 160.5 -36t163.5 -36q52 0 84 18q10 5 16 5q7 0 14 -7q17 -33 17 -36q0 -10 -6 -13q-57 -35 -125 -35q-55 0 -160.5 36t-163.5 36z" />
<glyph unicode="&#xd2;" horiz-adv-x="1224" d="M612 55q59 0 108.5 8.5t109.5 40.5t101.5 85.5t70 152t28.5 231.5q0 85 -10.5 156.5t-26 122.5t-41.5 91.5t-50 66t-59 44t-60 27t-62.5 13.5t-57 5.5t-51.5 0.5q-42 0 -67.5 -1.5t-74.5 -11.5t-81 -28.5t-72.5 -57.5t-64 -93.5t-40.5 -140t-17 -194.5q0 -96 14.5 -174.5 t38.5 -131.5t59 -93t70.5 -62t79.5 -35.5t79.5 -17.5t75.5 -4zM612 -10q-489 0 -489 583q0 118 17 212t50.5 158t76 108.5t100 69.5t116 35.5t129.5 10.5q86 0 154.5 -15t133 -55t107.5 -105t69 -171.5t26 -247.5q0 -583 -490 -583zM553 1522l176 -185q4 -8 4 -12 q0 -27 -35 -27q-14 0 -26 9l-185 157q-2 2 -2 17q0 11 7 22l20 25q8 4 18 4q13 0 23 -10z" />
<glyph unicode="&#xd3;" horiz-adv-x="1224" d="M612 55q59 0 108.5 8.5t109.5 40.5t101.5 85.5t70 152t28.5 231.5q0 85 -10.5 156.5t-26 122.5t-41.5 91.5t-50 66t-59 44t-60 27t-62.5 13.5t-57 5.5t-51.5 0.5q-42 0 -67.5 -1.5t-74.5 -11.5t-81 -28.5t-72.5 -57.5t-64 -93.5t-40.5 -140t-17 -194.5q0 -96 14.5 -174.5 t38.5 -131.5t59 -93t70.5 -62t79.5 -35.5t79.5 -17.5t75.5 -4zM612 -10q-489 0 -489 583q0 118 17 212t50.5 158t76 108.5t100 69.5t116 35.5t129.5 10.5q86 0 154.5 -15t133 -55t107.5 -105t69 -171.5t26 -247.5q0 -583 -490 -583zM496 1337l176 185q10 10 22 10 q11 0 19 -4l20 -25q6 -9 6 -22q0 -15 -2 -17l-184 -157q-12 -9 -27 -9q-34 0 -34 27q0 4 4 12z" />
<glyph unicode="&#xd4;" horiz-adv-x="1224" d="M612 55q59 0 108.5 8.5t109.5 40.5t101.5 85.5t70 152t28.5 231.5q0 85 -10.5 156.5t-26 122.5t-41.5 91.5t-50 66t-59 44t-60 27t-62.5 13.5t-57 5.5t-51.5 0.5q-42 0 -67.5 -1.5t-74.5 -11.5t-81 -28.5t-72.5 -57.5t-64 -93.5t-40.5 -140t-17 -194.5q0 -96 14.5 -174.5 t38.5 -131.5t59 -93t70.5 -62t79.5 -35.5t79.5 -17.5t75.5 -4zM612 -10q-489 0 -489 583q0 118 17 212t50.5 158t76 108.5t100 69.5t116 35.5t129.5 10.5q86 0 154.5 -15t133 -55t107.5 -105t69 -171.5t26 -247.5q0 -583 -490 -583zM582 1554h61q21 0 35 -22l108 -211 q0 -23 -22 -23h-27q-15 0 -28 23l-97 180l-96 -180q-13 -23 -29 -23h-26q-23 0 -23 23l109 211q14 22 35 22z" />
<glyph unicode="&#xd5;" horiz-adv-x="1224" d="M612 55q59 0 108.5 8.5t109.5 40.5t101.5 85.5t70 152t28.5 231.5q0 85 -10.5 156.5t-26 122.5t-41.5 91.5t-50 66t-59 44t-60 27t-62.5 13.5t-57 5.5t-51.5 0.5q-42 0 -67.5 -1.5t-74.5 -11.5t-81 -28.5t-72.5 -57.5t-64 -93.5t-40.5 -140t-17 -194.5q0 -96 14.5 -174.5 t38.5 -131.5t59 -93t70.5 -62t79.5 -35.5t79.5 -17.5t75.5 -4zM612 -10q-489 0 -489 583q0 118 17 212t50.5 158t76 108.5t100 69.5t116 35.5t129.5 10.5q86 0 154.5 -15t133 -55t107.5 -105t69 -171.5t26 -247.5q0 -583 -490 -583zM449 1370q-52 0 -84 -18q-8 -4 -17 -4 q-8 0 -14 6q-17 33 -17 37q0 9 7 12q57 35 125 35q55 0 160 -36t163 -36q52 0 84 18q10 5 16 5q8 0 15 -7q16 -31 16 -36q0 -10 -6 -13q-57 -35 -125 -35q-55 0 -160 36t-163 36z" />
<glyph unicode="&#xd6;" horiz-adv-x="1224" d="M612 55q59 0 108.5 8.5t109.5 40.5t101.5 85.5t70 152t28.5 231.5q0 85 -10.5 156.5t-26 122.5t-41.5 91.5t-50 66t-59 44t-60 27t-62.5 13.5t-57 5.5t-51.5 0.5q-42 0 -67.5 -1.5t-74.5 -11.5t-81 -28.5t-72.5 -57.5t-64 -93.5t-40.5 -140t-17 -194.5q0 -96 14.5 -174.5 t38.5 -131.5t59 -93t70.5 -62t79.5 -35.5t79.5 -17.5t75.5 -4zM612 -10q-489 0 -489 583q0 118 17 212t50.5 158t76 108.5t100 69.5t116 35.5t129.5 10.5q86 0 154.5 -15t133 -55t107.5 -105t69 -171.5t26 -247.5q0 -583 -490 -583zM440 1343q0 19 12 31t31 12t32 -12 t13 -31t-13 -32t-32 -13t-31 13t-12 32zM694 1343q0 19 12 31t31 12t32 -12t13 -31t-13 -32t-32 -13t-31 13t-12 32z" />
<glyph unicode="&#xd7;" horiz-adv-x="802" d="M573 147l-172 230l-172 -230q-16 -22 -41 -22h-20q-23 0 -23 22l203 279l-205 285q0 22 23 22h20q25 0 41 -22l174 -238l174 238q16 22 41 22h21q22 0 22 -22l-204 -285l202 -279q0 -22 -22 -22h-21q-25 0 -41 22z" />
<glyph unicode="&#xd8;" horiz-adv-x="1224" d="M836 1130q266 -103 266 -557q0 -583 -490 -583q-82 0 -159 18l-82 -237q-8 -21 -25 -21h-29q-22 0 -22 21l90 260q-262 114 -262 542q0 118 17 212t50.5 158t76 108.5t100 69.5t116 35.5t129.5 10.5q93 0 158 -16l84 250q8 20 25 20h28q21 0 21 -20zM195 573 q0 -371 213 -477l340 994q-49 10 -136 10q-42 0 -67.5 -1.5t-74.5 -11.5t-81 -28.5t-72.5 -57.5t-64 -93.5t-40.5 -140t-17 -194.5zM612 55q59 0 108.5 8.5t109.5 40.5t101.5 85.5t70 152t28.5 231.5q0 401 -215 494l-340 -995q67 -17 137 -17z" />
<glyph unicode="&#xd9;" horiz-adv-x="1155" d="M578 -10q-86 0 -149 12.5t-119.5 47t-91.5 93.5t-55 155t-20 228v615q0 22 23 22h27q22 0 22 -22v-611q0 -75 7 -137t18.5 -108t31 -82t38.5 -60t47 -41t51 -26t56 -14t56.5 -6t57.5 -1q45 0 74.5 2t71 12t69 28t58 53.5t48 84.5t29.5 124t12 171v611q0 22 23 22h26 q23 0 23 -22v-615q0 -132 -20 -228t-55 -155t-91.5 -93.5t-119 -47t-148.5 -12.5zM518 1522l176 -185q4 -8 4 -12q0 -27 -34 -27q-15 0 -27 9l-184 157q-2 2 -2 17q0 13 6 22l20 25q8 4 19 4q12 0 22 -10z" />
<glyph unicode="&#xda;" horiz-adv-x="1155" d="M578 -10q-86 0 -149 12.5t-119.5 47t-91.5 93.5t-55 155t-20 228v615q0 22 23 22h27q22 0 22 -22v-611q0 -75 7 -137t18.5 -108t31 -82t38.5 -60t47 -41t51 -26t56 -14t56.5 -6t57.5 -1q45 0 74.5 2t71 12t69 28t58 53.5t48 84.5t29.5 124t12 171v611q0 22 23 22h26 q23 0 23 -22v-615q0 -132 -20 -228t-55 -155t-91.5 -93.5t-119 -47t-148.5 -12.5zM461 1337l176 185q10 10 22 10q11 0 19 -4l20 -25q7 -11 7 -22q0 -14 -3 -17l-184 -157q-12 -9 -26 -9q-35 0 -35 27q0 4 4 12z" />
<glyph unicode="&#xdb;" horiz-adv-x="1155" d="M578 -10q-86 0 -149 12.5t-119.5 47t-91.5 93.5t-55 155t-20 228v615q0 22 23 22h27q22 0 22 -22v-611q0 -75 7 -137t18.5 -108t31 -82t38.5 -60t47 -41t51 -26t56 -14t56.5 -6t57.5 -1q45 0 74.5 2t71 12t69 28t58 53.5t48 84.5t29.5 124t12 171v611q0 22 23 22h26 q23 0 23 -22v-615q0 -132 -20 -228t-55 -155t-91.5 -93.5t-119 -47t-148.5 -12.5zM547 1554h61q21 0 35 -22l109 -211q0 -23 -23 -23h-27q-15 0 -28 23l-96 180l-97 -180q-13 -23 -28 -23h-27q-23 0 -23 23l109 211q14 22 35 22z" />
<glyph unicode="&#xdc;" horiz-adv-x="1155" d="M578 -10q-86 0 -149 12.5t-119.5 47t-91.5 93.5t-55 155t-20 228v615q0 22 23 22h27q22 0 22 -22v-611q0 -75 7 -137t18.5 -108t31 -82t38.5 -60t47 -41t51 -26t56 -14t56.5 -6t57.5 -1q45 0 74.5 2t71 12t69 28t58 53.5t48 84.5t29.5 124t12 171v611q0 22 23 22h26 q23 0 23 -22v-615q0 -132 -20 -228t-55 -155t-91.5 -93.5t-119 -47t-148.5 -12.5zM408 1343q0 19 12 31t31 12t32 -12t13 -31t-13 -32t-32 -13t-31 13t-12 32zM662 1343q0 19 12 31t31 12t32 -12t13 -31t-13 -32t-32 -13t-31 13t-12 32z" />
<glyph unicode="&#xdd;" horiz-adv-x="1028" d="M395 1337l176 185q10 10 23 10q10 0 18 -4l21 -25q6 -9 6 -22q0 -15 -2 -17l-184 -157q-12 -9 -27 -9q-35 0 -35 27q0 4 4 12zM512 403l367 738q9 22 28 22h27q22 0 22 -22l-407 -832v-286q0 -23 -23 -23h-26q-23 0 -23 23v286l-405 832q0 22 22 22h27q20 0 29 -22z" />
<glyph unicode="&#xde;" horiz-adv-x="983" d="M143 23v1118q0 22 23 22h27q22 0 22 -22v-209h297q185 0 287 -87t102 -265q0 -182 -98 -266.5t-293 -84.5h-295v-206q0 -23 -22 -23h-27q-23 0 -23 23zM532 295q141 0 219 69t78 216q0 144 -79 214t-218 70h-317v-569h317z" />
<glyph unicode="&#xdf;" horiz-adv-x="1024" d="M500 -2q-23 7 -23 22v23q0 23 23 23q49 -11 82 -11q68 0 114.5 9.5t75 25.5t43.5 46.5t20 63.5t5 85q0 120 -78 172.5t-240 58.5q-22 0 -22 23v22q0 23 22 23q68 6 122 27.5t87.5 51.5t56 67t31 71t8.5 67q0 54 -5.5 88t-22 64t-48 46t-82 25t-126.5 9h-31 q-160 0 -228.5 -86t-68.5 -262v-729q0 -23 -22 -23h-27q-23 0 -23 23v729q0 209 87 312t282 103h31q204 0 280 -65t76 -232q0 -45 -6.5 -80t-26 -78.5t-64 -83t-112.5 -71.5q221 -61 221 -268q0 -162 -71 -230.5t-256 -68.5q-53 0 -84 8z" />
<glyph unicode="&#xe0;" horiz-adv-x="942" d="M727 190v572q-59 12 -160 12q-187 0 -295 -102.5t-108 -286.5q0 -330 289 -330q37 0 79 14t75.5 33.5t61 39.5t43.5 34zM799 793v-770q0 -23 -23 -23h-14q-10 0 -13.5 5t-7.5 18l-14 92q-37 -40 -86 -67.5t-94 -38.5t-72.5 -15t-44.5 -4q-159 0 -248.5 100t-89.5 297 q0 222 137.5 338.5t360.5 116.5q97 0 188 -23q21 -8 21 -26zM428 1200l176 -184q4 -8 4 -12q0 -27 -35 -27q-15 0 -26 8l-185 158q-2 2 -2 16q0 13 7 23l20 24q8 4 19 4q12 0 22 -10z" />
<glyph unicode="&#xe1;" horiz-adv-x="942" d="M727 190v572q-59 12 -160 12q-187 0 -295 -102.5t-108 -286.5q0 -330 289 -330q37 0 79 14t75.5 33.5t61 39.5t43.5 34zM799 793v-770q0 -23 -23 -23h-14q-10 0 -13.5 5t-7.5 18l-14 92q-37 -40 -86 -67.5t-94 -38.5t-72.5 -15t-44.5 -4q-159 0 -248.5 100t-89.5 297 q0 222 137.5 338.5t360.5 116.5q97 0 188 -23q21 -8 21 -26zM365 1016l176 184q10 10 22 10q11 0 19 -4l20 -24q6 -9 6 -23t-2 -16l-184 -158q-11 -8 -27 -8q-35 0 -35 27q0 2 5 12z" />
<glyph unicode="&#xe2;" horiz-adv-x="942" d="M727 190v572q-59 12 -160 12q-187 0 -295 -102.5t-108 -286.5q0 -330 289 -330q37 0 79 14t75.5 33.5t61 39.5t43.5 34zM799 793v-770q0 -23 -23 -23h-14q-10 0 -13.5 5t-7.5 18l-14 92q-37 -40 -86 -67.5t-94 -38.5t-72.5 -15t-44.5 -4q-159 0 -248.5 100t-89.5 297 q0 222 137.5 338.5t360.5 116.5q97 0 188 -23q21 -8 21 -26zM500 1233h61q21 0 35 -23l109 -211q0 -22 -23 -22h-27q-15 0 -28 22l-97 181l-96 -181q-13 -22 -28 -22h-27q-23 0 -23 22l109 211q14 23 35 23z" />
<glyph unicode="&#xe3;" horiz-adv-x="942" d="M727 190v572q-59 12 -160 12q-187 0 -295 -102.5t-108 -286.5q0 -330 289 -330q37 0 79 14t75.5 33.5t61 39.5t43.5 34zM799 793v-770q0 -23 -23 -23h-14q-10 0 -13.5 5t-7.5 18l-14 92q-37 -40 -86 -67.5t-94 -38.5t-72.5 -15t-44.5 -4q-159 0 -248.5 100t-89.5 297 q0 222 137.5 338.5t360.5 116.5q97 0 188 -23q21 -8 21 -26zM315 1049q-50 0 -84 -19q-8 -4 -16 -4t-14 6q-17 33 -17 37q0 9 6 12q57 35 125 35q55 0 160.5 -36t163.5 -36q50 0 84 19q8 4 16 4q9 0 15 -6q16 -31 16 -37q0 -9 -6 -12q-57 -35 -125 -35q-55 0 -160.5 36 t-163.5 36z" />
<glyph unicode="&#xe4;" horiz-adv-x="942" d="M727 190v572q-59 12 -160 12q-187 0 -295 -102.5t-108 -286.5q0 -330 289 -330q37 0 79 14t75.5 33.5t61 39.5t43.5 34zM799 793v-770q0 -23 -23 -23h-14q-10 0 -13.5 5t-7.5 18l-14 92q-37 -40 -86 -67.5t-94 -38.5t-72.5 -15t-44.5 -4q-159 0 -248.5 100t-89.5 297 q0 222 137.5 338.5t360.5 116.5q97 0 188 -23q21 -8 21 -26zM403 1022q0 19 12 31t31 12t32.5 -12.5t13.5 -30.5q0 -19 -13.5 -32t-32.5 -13t-31 13t-12 32zM657 1022q0 19 12 31t31 12t32 -12t13 -31t-13 -32t-32 -13t-31 13t-12 32z" />
<glyph unicode="&#xe5;" horiz-adv-x="942" d="M727 190v572q-59 12 -160 12q-187 0 -295 -102.5t-108 -286.5q0 -330 289 -330q37 0 79 14t75.5 33.5t61 39.5t43.5 34zM799 793v-770q0 -23 -23 -23h-14q-10 0 -13.5 5t-7.5 18l-14 92q-37 -40 -86 -67.5t-94 -38.5t-72.5 -15t-44.5 -4q-159 0 -248.5 100t-89.5 297 q0 222 137.5 338.5t360.5 116.5q97 0 188 -23q21 -8 21 -26zM365 1167q0 96 49.5 144.5t134.5 48.5t134.5 -48.5t49.5 -144.5q0 -95 -49.5 -142.5t-134.5 -47.5t-134.5 47.5t-49.5 142.5zM668 1167q0 37 -12.5 63t-32 38.5t-38 18t-36.5 5.5t-36 -5.5t-37.5 -18t-31.5 -38.5 t-12 -63q0 -36 12 -62t31.5 -38t37.5 -17.5t36 -5.5q43 0 81 28t38 95z" />
<glyph unicode="&#xe6;" horiz-adv-x="1550" d="M1399 109q14 0 18 -15l6 -33q0 -7 -2.5 -10t-13.5 -8q-135 -53 -260 -53q-249 0 -356 174q-43 -57 -103 -96t-117 -54t-88.5 -19.5t-52.5 -4.5q-159 0 -248.5 100t-89.5 297q0 112 34 200t93.5 143t137.5 83.5t169 28.5q207 0 271 -144q36 46 78.5 76.5t88 44t82.5 18.5 t82 5q306 0 306 -246q0 -69 -23 -119t-64.5 -78.5t-93.5 -41.5t-116 -13q-151 0 -338 82q0 -178 96.5 -274.5t255.5 -96.5q107 0 248 54zM727 190v496q-40 88 -190 88q-176 0 -274.5 -102t-98.5 -287q0 -330 289 -330q37 0 79 14t75.5 33.5t61 39.5t43.5 34zM1108 774 q-124 0 -201.5 -59.5t-107.5 -214.5q52 -33 156 -60.5t155 -27.5q131 0 191.5 36.5t60.5 139.5q0 51 -15 87t-36.5 55t-58.5 29t-67 12.5t-77 2.5z" />
<glyph unicode="&#xe7;" horiz-adv-x="915" d="M793 35q-99 -36 -215 -43q10 -82 10 -113q0 -211 -178 -211q-94 0 -123 6v35q0 27 22 27q16 -2 49 -2q95 0 126.5 25t31.5 104q0 71 -12 127q-191 7 -291 118.5t-100 309.5q0 207 106.5 315.5t310.5 108.5q149 0 263 -41q16 -7 16 -19l-6 -32q-4 -15 -19 -15 q-104 39 -231 39q-185 0 -277 -79.5t-92 -276.5q0 -101 27 -173t78 -112.5t116 -59t148 -18.5q111 0 231 45q16 0 19 -14l6 -33q0 -7 -2.5 -10t-13.5 -8z" />
<glyph unicode="&#xe8;" horiz-adv-x="935" d="M494 774q-124 0 -202 -59.5t-108 -214.5q52 -33 156.5 -60.5t155.5 -27.5q131 0 191.5 36.5t60.5 139.5q0 51 -15 87t-36.5 55t-58.5 29t-67 12.5t-77 2.5zM784 109q15 0 19 -15l6 -33q0 -7 -2.5 -10t-13.5 -8q-135 -53 -261 -53q-202 0 -310.5 114.5t-108.5 319.5 q0 194 97.5 306t283.5 112q162 0 243.5 -59t81.5 -187q0 -69 -23 -119t-64.5 -78.5t-93.5 -41.5t-116 -13q-151 0 -338 82q0 -178 97 -274.5t256 -96.5q106 0 247 54zM465 1200l176 -184q4 -8 4 -12q0 -27 -35 -27q-15 0 -26 8l-185 158q-2 2 -2 16t6 23l21 24q8 4 18 4 q13 0 23 -10z" />
<glyph unicode="&#xe9;" horiz-adv-x="935" d="M494 774q-124 0 -202 -59.5t-108 -214.5q52 -33 156.5 -60.5t155.5 -27.5q131 0 191.5 36.5t60.5 139.5q0 51 -15 87t-36.5 55t-58.5 29t-67 12.5t-77 2.5zM784 109q15 0 19 -15l6 -33q0 -7 -2.5 -10t-13.5 -8q-135 -53 -261 -53q-202 0 -310.5 114.5t-108.5 319.5 q0 194 97.5 306t283.5 112q162 0 243.5 -59t81.5 -187q0 -69 -23 -119t-64.5 -78.5t-93.5 -41.5t-116 -13q-151 0 -338 82q0 -178 97 -274.5t256 -96.5q106 0 247 54zM401 1016l177 184q10 10 22 10q10 0 18 -4l21 -24q6 -9 6 -23t-2 -16l-184 -158q-11 -8 -27 -8 q-35 0 -35 27q0 4 4 12z" />
<glyph unicode="&#xea;" horiz-adv-x="935" d="M494 774q-124 0 -202 -59.5t-108 -214.5q52 -33 156.5 -60.5t155.5 -27.5q131 0 191.5 36.5t60.5 139.5q0 51 -15 87t-36.5 55t-58.5 29t-67 12.5t-77 2.5zM784 109q15 0 19 -15l6 -33q0 -7 -2.5 -10t-13.5 -8q-135 -53 -261 -53q-202 0 -310.5 114.5t-108.5 319.5 q0 194 97.5 306t283.5 112q162 0 243.5 -59t81.5 -187q0 -69 -23 -119t-64.5 -78.5t-93.5 -41.5t-116 -13q-151 0 -338 82q0 -178 97 -274.5t256 -96.5q106 0 247 54zM467 1233h61q21 0 35 -23l109 -211q0 -22 -23 -22h-26q-16 0 -29 22l-96 181l-97 -181q-13 -22 -28 -22 h-27q-22 0 -22 22l108 211q14 23 35 23z" />
<glyph unicode="&#xeb;" horiz-adv-x="935" d="M494 774q-124 0 -202 -59.5t-108 -214.5q52 -33 156.5 -60.5t155.5 -27.5q131 0 191.5 36.5t60.5 139.5q0 51 -15 87t-36.5 55t-58.5 29t-67 12.5t-77 2.5zM784 109q15 0 19 -15l6 -33q0 -7 -2.5 -10t-13.5 -8q-135 -53 -261 -53q-202 0 -310.5 114.5t-108.5 319.5 q0 194 97.5 306t283.5 112q162 0 243.5 -59t81.5 -187q0 -69 -23 -119t-64.5 -78.5t-93.5 -41.5t-116 -13q-151 0 -338 82q0 -178 97 -274.5t256 -96.5q106 0 247 54zM330 1022q0 19 12 31t31 12t32 -12t13 -31t-13 -32t-32 -13t-31 13t-12 32zM584 1022q0 19 12 31t31 12 t32 -12t13 -31t-13 -32t-32 -13t-31 13t-12 32z" />
<glyph unicode="&#xec;" d="M143 23v784q0 22 23 22h27q22 0 22 -22v-784q0 -23 -22 -23h-27q-23 0 -23 23zM123 1200l176 -184q4 -8 4 -12q0 -27 -35 -27q-15 0 -26 8l-185 158q-2 2 -2 16t6 23l21 24q8 4 18 4q13 0 23 -10z" />
<glyph unicode="&#xed;" d="M215 807v-784q0 -23 -22 -23h-27q-23 0 -23 23v784q0 22 23 22h27q22 0 22 -22zM59 1016l177 184q10 10 22 10q10 0 18 -4l21 -24q6 -9 6 -23t-2 -16l-184 -158q-11 -8 -27 -8q-35 0 -35 27q0 4 4 12z" />
<glyph unicode="&#xee;" d="M215 807v-784q0 -23 -22 -23h-27q-23 0 -23 23v784q0 22 23 22h27q22 0 22 -22zM147 1233h62q21 0 35 -23l108 -211q0 -22 -22 -22h-27q-16 0 -29 22l-96 181l-96 -181q-13 -22 -29 -22h-26q-23 0 -23 22l109 211q14 23 34 23z" />
<glyph unicode="&#xef;" d="M215 807v-784q0 -23 -22 -23h-27q-23 0 -23 23v784q0 22 23 22h27q22 0 22 -22zM8 1022q0 19 12 31t31 12t32 -12t13 -31t-13 -32t-32 -13t-31 13t-12 32zM262 1022q0 19 12 31t31 12t32 -12t13 -31t-13 -32t-32 -13t-31 13t-12 32z" />
<glyph unicode="&#xf0;" horiz-adv-x="950" d="M408 885l133 207q-59 10 -138 10q-107 0 -215 -39q-14 0 -18 14l-6 33q0 7 2.5 10t13.5 8q101 39 252 39q77 0 146 -16l92 141q18 23 45 23h28q9 0 15 -6t6 -15l-111 -170q185 -87 185 -340v-454q0 -163 -91 -251.5t-276 -88.5q-182 0 -270 84.5t-88 257.5 q0 180 87.5 265t270.5 85q25 0 51.5 -3t74.5 -13t93 -39t76 -72v246q0 205 -148 268l-116 -182l-3.5 -3.5t-4 -4.5t-4.5 -4.5t-6.5 -4t-7.5 -3t-8.5 -2.5t-10.5 -1h-29q-7 0 -13.5 6.5t-6.5 14.5zM471 614q-86 0 -144.5 -21t-88.5 -61.5t-42 -87t-12 -110.5q0 -59 12 -104.5 t41.5 -86.5t88.5 -63.5t145 -22.5q76 0 132.5 18t86.5 44t48 64.5t23 70t5 70.5t-4 71t-21.5 75t-47 72.5t-87 50.5t-135.5 21z" />
<glyph unicode="&#xf1;" horiz-adv-x="962" d="M164 797q153 45 307 45q199 0 284 -93.5t85 -293.5v-432q0 -23 -23 -23h-26q-23 0 -23 23v329q0 89 -5 147t-21.5 115t-47 89t-82.5 51.5t-127 19.5q-31 0 -71.5 -2t-103.5 -13.5t-95 -29.5v-706q0 -23 -22 -23h-27q-23 0 -23 23v747q0 15 21 27zM330 1049q-50 0 -84 -19 q-8 -4 -17 -4q-8 0 -14 6q-16 31 -16 37q0 9 6 12q57 35 125 35q55 0 160 -36t163 -36q50 0 84 19q8 4 17 4q8 0 14 -6q16 -31 16 -37q0 -9 -6 -12q-57 -35 -125 -35q-55 0 -160 36t-163 36z" />
<glyph unicode="&#xf2;" horiz-adv-x="1028" d="M514 55q62 0 112 12.5t83.5 33t59 51t39.5 61t22.5 69.5t11 71t2.5 69q0 52 -8.5 99t-31.5 94.5t-58.5 81.5t-95 55.5t-136.5 21.5t-136.5 -21.5t-95 -55.5t-58.5 -81.5t-31.5 -94.5t-8.5 -99q0 -37 2.5 -69t11 -71t22.5 -69.5t39.5 -61t59 -51t83.5 -33t112 -12.5z M514 -10q-199 0 -300 113.5t-101 320.5q0 195 102 306.5t299 111.5t299 -111.5t102 -306.5q0 -207 -101 -320.5t-300 -113.5zM455 1200l176 -184q4 -8 4 -12q0 -27 -35 -27q-16 0 -27 8l-184 158q-2 2 -2 16t6 23l21 24q8 4 18 4q13 0 23 -10z" />
<glyph unicode="&#xf3;" horiz-adv-x="1028" d="M514 55q62 0 112 12.5t83.5 33t59 51t39.5 61t22.5 69.5t11 71t2.5 69q0 52 -8.5 99t-31.5 94.5t-58.5 81.5t-95 55.5t-136.5 21.5t-136.5 -21.5t-95 -55.5t-58.5 -81.5t-31.5 -94.5t-8.5 -99q0 -37 2.5 -69t11 -71t22.5 -69.5t39.5 -61t59 -51t83.5 -33t112 -12.5z M514 -10q-199 0 -300 113.5t-101 320.5q0 195 102 306.5t299 111.5t299 -111.5t102 -306.5q0 -207 -101 -320.5t-300 -113.5zM397 1016l176 184q10 10 23 10q10 0 18 -4l21 -24q6 -9 6 -23t-2 -16l-184 -158q-11 -8 -27 -8q-35 0 -35 27q0 4 4 12z" />
<glyph unicode="&#xf4;" horiz-adv-x="1028" d="M514 55q62 0 112 12.5t83.5 33t59 51t39.5 61t22.5 69.5t11 71t2.5 69q0 52 -8.5 99t-31.5 94.5t-58.5 81.5t-95 55.5t-136.5 21.5t-136.5 -21.5t-95 -55.5t-58.5 -81.5t-31.5 -94.5t-8.5 -99q0 -37 2.5 -69t11 -71t22.5 -69.5t39.5 -61t59 -51t83.5 -33t112 -12.5z M514 -10q-199 0 -300 113.5t-101 320.5q0 195 102 306.5t299 111.5t299 -111.5t102 -306.5q0 -207 -101 -320.5t-300 -113.5zM483 1233h62q21 0 35 -23l108 -211q0 -22 -22 -22h-27q-16 0 -29 22l-96 181l-96 -181q-13 -22 -29 -22h-27q-22 0 -22 22l109 211q14 23 34 23z " />
<glyph unicode="&#xf5;" horiz-adv-x="1028" d="M514 55q62 0 112 12.5t83.5 33t59 51t39.5 61t22.5 69.5t11 71t2.5 69q0 52 -8.5 99t-31.5 94.5t-58.5 81.5t-95 55.5t-136.5 21.5t-136.5 -21.5t-95 -55.5t-58.5 -81.5t-31.5 -94.5t-8.5 -99q0 -37 2.5 -69t11 -71t22.5 -69.5t39.5 -61t59 -51t83.5 -33t112 -12.5z M514 -10q-199 0 -300 113.5t-101 320.5q0 195 102 306.5t299 111.5t299 -111.5t102 -306.5q0 -207 -101 -320.5t-300 -113.5zM350 1049q-50 0 -84 -19q-8 -4 -16 -4t-14 6q-17 33 -17 37q0 9 6 12q57 35 125 35q55 0 160.5 -36t163.5 -36q50 0 84 19q8 4 16 4t14 -6 q17 -33 17 -37q0 -9 -6 -12q-57 -35 -125 -35q-55 0 -160.5 36t-163.5 36z" />
<glyph unicode="&#xf6;" horiz-adv-x="1028" d="M514 55q62 0 112 12.5t83.5 33t59 51t39.5 61t22.5 69.5t11 71t2.5 69q0 52 -8.5 99t-31.5 94.5t-58.5 81.5t-95 55.5t-136.5 21.5t-136.5 -21.5t-95 -55.5t-58.5 -81.5t-31.5 -94.5t-8.5 -99q0 -37 2.5 -69t11 -71t22.5 -69.5t39.5 -61t59 -51t83.5 -33t112 -12.5z M514 -10q-199 0 -300 113.5t-101 320.5q0 195 102 306.5t299 111.5t299 -111.5t102 -306.5q0 -207 -101 -320.5t-300 -113.5zM342 1022q0 19 12 31t31 12t32 -12t13 -31t-13 -32t-32 -13t-31 13t-12 32zM596 1022q0 19 12 31t31 12t32 -12t13 -31t-13 -32t-32 -13t-31 13 t-12 32z" />
<glyph unicode="&#xf7;" horiz-adv-x="813" d="M647 262h-481q-23 0 -23 23v22q0 23 23 23h481q23 0 23 -23v-22q0 -23 -23 -23zM362 35q0 19 12.5 31t31.5 12t32 -12t13 -31t-13 -32t-32 -13t-31.5 13t-12.5 32zM362 557q0 19 12.5 32t31.5 13t32 -13t13 -32t-13 -31t-32 -12t-31.5 12t-12.5 31z" />
<glyph unicode="&#xf8;" horiz-adv-x="1028" d="M690 811q112 -42 168.5 -142.5t56.5 -244.5q0 -207 -101 -320.5t-300 -113.5q-61 0 -102 8l-82 -236q-8 -20 -25 -20h-29q-22 0 -22 20l88 254q-229 88 -229 408q0 195 102 306.5t299 111.5q48 0 109 -11l75 222q8 20 25 20h29q20 0 20 -20zM184 422q0 -42 3.5 -77.5 t14.5 -78.5t30 -76t53 -63t80 -47l235 686q-33 8 -86 8q-77 0 -136.5 -21.5t-95 -55.5t-58.5 -81.5t-31.5 -94.5t-8.5 -99zM514 55q62 0 112 12.5t83.5 33t59 51t39.5 61t22.5 69.5t11 71t2.5 69q0 69 -14 127.5t-55 113.5t-107 82l-236 -684q38 -6 82 -6z" />
<glyph unicode="&#xf9;" horiz-adv-x="964" d="M821 807v-701q0 -17 -20 -28q-134 -88 -301 -88q-202 0 -289.5 76.5t-87.5 269.5v471q0 22 22 22h27q23 0 23 -22v-395q0 -93 8.5 -152.5t27 -102t55 -63.5t85 -30t125.5 -9q153 0 254 76v676q0 22 22 22h27q22 0 22 -22zM422 1200l176 -184q4 -8 4 -12q0 -27 -35 -27 q-15 0 -26 8l-185 158q-2 2 -2 16t6 23l21 24q8 4 18 4q13 0 23 -10z" />
<glyph unicode="&#xfa;" horiz-adv-x="964" d="M821 807v-701q0 -17 -20 -28q-134 -88 -301 -88q-202 0 -289.5 76.5t-87.5 269.5v471q0 22 22 22h27q23 0 23 -22v-395q0 -93 8.5 -152.5t27 -102t55 -63.5t85 -30t125.5 -9q153 0 254 76v676q0 22 22 22h27q22 0 22 -22zM358 1016l177 184q10 10 22 10q10 0 18 -4 l21 -24q6 -9 6 -23t-2 -16l-184 -158q-11 -8 -27 -8q-35 0 -35 27q0 4 4 12z" />
<glyph unicode="&#xfb;" horiz-adv-x="964" d="M821 807v-701q0 -17 -20 -28q-134 -88 -301 -88q-202 0 -289.5 76.5t-87.5 269.5v471q0 22 22 22h27q23 0 23 -22v-395q0 -93 8.5 -152.5t27 -102t55 -63.5t85 -30t125.5 -9q153 0 254 76v676q0 22 22 22h27q22 0 22 -22zM442 1233h62q21 0 35 -23l108 -211 q0 -22 -22 -22h-27q-16 0 -29 22l-96 181l-96 -181q-13 -22 -29 -22h-26q-23 0 -23 22l109 211q14 23 34 23z" />
<glyph unicode="&#xfc;" horiz-adv-x="964" d="M821 807v-701q0 -17 -20 -28q-134 -88 -301 -88q-202 0 -289.5 76.5t-87.5 269.5v471q0 22 22 22h27q23 0 23 -22v-395q0 -93 8.5 -152.5t27 -102t55 -63.5t85 -30t125.5 -9q153 0 254 76v676q0 22 22 22h27q22 0 22 -22zM299 1022q0 19 12 31t31 12t32 -12t13 -31 t-13 -32t-32 -13t-31 13t-12 32zM553 1022q0 19 12 31t31 12t32 -12t13 -31t-13 -32t-32 -13t-31 13t-12 32z" />
<glyph unicode="&#xfd;" horiz-adv-x="960" d="M745 215v592q0 22 23 22h27q22 0 22 -22v-920q0 -46 -7 -89t-30.5 -94.5t-61 -88.5t-105 -62.5t-156.5 -25.5q-29 0 -55.5 2.5t-68 14.5t-70.5 33t-51 63t-22 100q0 85 50 146.5t166 129.5q-141 11 -212 99.5t-71 271.5v420q0 22 22 22h27q23 0 23 -22v-422 q0 -79 16 -136.5t40 -89.5t62.5 -50.5t74 -23.5t83.5 -5q59 0 127.5 34t107.5 68zM745 -111v236q-105 -56 -164.5 -89t-120 -67.5t-89 -56t-55 -43.5t-35.5 -41.5t-14 -39t-5 -46.5q0 -69 48 -108.5t173 -39.5q115 0 188.5 77t73.5 218zM354 1016l176 184q10 10 23 10 q10 0 18 -4l21 -24q6 -9 6 -23t-2 -16l-184 -158q-11 -8 -27 -8q-35 0 -35 27q0 4 4 12z" />
<glyph unicode="&#xfe;" horiz-adv-x="985" d="M215 1141v-324q98 25 256 25q412 0 412 -426q0 -206 -104.5 -316t-307.5 -110q-100 0 -256 18v-387q0 -22 -22 -22h-27q-23 0 -23 22v1520q0 22 23 22h27q22 0 22 -22zM477 774q-196 0 -262 -35v-667q146 -17 238 -17q43 0 76.5 2.5t72 11.5t67.5 24.5t57 43t45.5 64.5 t28.5 91.5t11 123.5q0 200 -79 279t-255 79z" />
<glyph unicode="&#xff;" horiz-adv-x="960" d="M745 215v592q0 22 23 22h27q22 0 22 -22v-920q0 -46 -7 -89t-30.5 -94.5t-61 -88.5t-105 -62.5t-156.5 -25.5q-29 0 -55.5 2.5t-68 14.5t-70.5 33t-51 63t-22 100q0 85 50 146.5t166 129.5q-141 11 -212 99.5t-71 271.5v420q0 22 22 22h27q23 0 23 -22v-422 q0 -79 16 -136.5t40 -89.5t62.5 -50.5t74 -23.5t83.5 -5q59 0 127.5 34t107.5 68zM745 -111v236q-105 -56 -164.5 -89t-120 -67.5t-89 -56t-55 -43.5t-35.5 -41.5t-14 -39t-5 -46.5q0 -69 48 -108.5t173 -39.5q115 0 188.5 77t73.5 218zM293 1022q0 19 12 31t31 12t32 -12 t13 -31t-13 -32t-32 -13t-31 13t-12 32zM547 1022q0 19 12 31t31 12t32 -12t13 -31t-13 -32t-32 -13t-31 13t-12 32z" />
<glyph unicode="&#x152;" horiz-adv-x="1503" d="M801 66h588q22 0 22 -23v-20q0 -23 -22 -23h-641q-75 -10 -125 -10q-84 0 -156.5 18t-138.5 61.5t-113 109t-74.5 166t-27.5 228.5q0 141 28 247.5t74 171.5t113.5 105t138 55t156.5 15q13 0 79 -4h687q22 0 22 -22v-23q0 -22 -22 -22h-588v-486h450q23 0 23 -22v-21 q0 -22 -23 -22h-450v-479zM623 55q49 0 106 8v1029q-44 8 -80 8q-35 0 -56 -0.5t-62.5 -5.5t-69.5 -13.5t-67 -27t-66 -44t-56.5 -66t-47 -91.5t-29 -122.5t-11.5 -156.5q0 -94 16.5 -171t43.5 -130t65 -93t76.5 -63t83.5 -37.5t81 -19t73 -4.5z" />
<glyph unicode="&#x153;" horiz-adv-x="1667" d="M1516 109q14 0 18 -15l6 -33q0 -7 -2.5 -10t-13.5 -8q-135 -53 -260 -53q-143 0 -240.5 58.5t-142.5 166.5q-87 -225 -367 -225q-199 0 -300 113.5t-101 320.5q0 195 102 306.5t299 111.5q274 0 365 -215q41 103 128 159t218 56q162 0 243.5 -59t81.5 -187 q0 -69 -23 -119t-64.5 -78.5t-93.5 -41.5t-116 -13q-151 0 -338 80v-16q4 -169 101 -261t252 -92q107 0 248 54zM514 55q85 0 148 24.5t97 60t54 88.5t25.5 97t5.5 99v18q-2 64 -19 118.5t-52.5 105t-101.5 79.5t-157 29q-77 0 -136.5 -21.5t-95 -55.5t-58.5 -81.5 t-31.5 -94.5t-8.5 -99q0 -37 2.5 -69t11 -71t22.5 -69.5t39.5 -61t59 -51t83.5 -33t112 -12.5zM1225 774q-124 0 -202 -59.5t-108 -214.5q52 -33 156.5 -60.5t155.5 -27.5q131 0 191.5 36.5t60.5 139.5q0 51 -15 87t-36.5 55t-58.5 29t-67 12.5t-77 2.5z" />
<glyph unicode="&#x178;" horiz-adv-x="1028" d="M342 1343q0 19 12 31t31 12t32 -12t13 -31t-13 -32t-32 -13t-31 13t-12 32zM596 1343q0 19 12 31t31 12t32 -12t13 -31t-13 -32t-32 -13t-31 13t-12 32zM512 403l367 738q9 22 28 22h27q22 0 22 -22l-407 -832v-286q0 -23 -23 -23h-26q-23 0 -23 23v286l-405 832 q0 22 22 22h27q20 0 29 -22z" />
<glyph unicode="&#x2c6;" horiz-adv-x="634" d="M287 1163h61q21 0 35 -22l109 -211q0 -23 -23 -23h-27q-15 0 -28 23l-97 180l-96 -180q-13 -23 -28 -23h-27q-23 0 -23 23l109 211q14 22 35 22z" />
<glyph unicode="&#x2dc;" horiz-adv-x="872" d="M274 1100q-50 0 -84 -19q-8 -4 -16 -4t-14 6q-17 33 -17 37q0 10 7 13q56 34 124 34q55 0 160.5 -35.5t163.5 -35.5q52 0 84 18q8 4 16 4q9 0 15 -6q16 -31 16 -37q0 -9 -6 -12q-57 -35 -125 -35q-55 0 -160.5 36t-163.5 36z" />
<glyph unicode="&#x2000;" horiz-adv-x="840" />
<glyph unicode="&#x2001;" horiz-adv-x="1681" />
<glyph unicode="&#x2002;" horiz-adv-x="840" />
<glyph unicode="&#x2003;" horiz-adv-x="1681" />
<glyph unicode="&#x2004;" horiz-adv-x="560" />
<glyph unicode="&#x2005;" horiz-adv-x="420" />
<glyph unicode="&#x2006;" horiz-adv-x="280" />
<glyph unicode="&#x2007;" horiz-adv-x="280" />
<glyph unicode="&#x2008;" horiz-adv-x="210" />
<glyph unicode="&#x2009;" horiz-adv-x="336" />
<glyph unicode="&#x200a;" horiz-adv-x="93" />
<glyph unicode="&#x2010;" horiz-adv-x="813" d="M647 338h-481q-23 0 -23 22v23q0 23 23 23h481q23 0 23 -23v-23q0 -22 -23 -22z" />
<glyph unicode="&#x2011;" horiz-adv-x="813" d="M647 338h-481q-23 0 -23 22v23q0 23 23 23h481q23 0 23 -23v-23q0 -22 -23 -22z" />
<glyph unicode="&#x2012;" horiz-adv-x="813" d="M647 338h-481q-23 0 -23 22v23q0 23 23 23h481q23 0 23 -23v-23q0 -22 -23 -22z" />
<glyph unicode="&#x2013;" horiz-adv-x="813" d="M647 338h-481q-23 0 -23 22v23q0 23 23 23h481q23 0 23 -23v-23q0 -22 -23 -22z" />
<glyph unicode="&#x2014;" horiz-adv-x="1026" d="M860 338h-694q-23 0 -23 22v23q0 23 23 23h694q23 0 23 -23v-23q0 -22 -23 -22z" />
<glyph unicode="&#x2018;" horiz-adv-x="403" d="M260 1145l-6 -17q-8 -22 -20.5 -87.5t-12.5 -94.5q0 -22 -22 -22h-33q-23 0 -23 22q7 50 31 133.5t49 83.5h19q18 0 18 -18z" />
<glyph unicode="&#x2019;" horiz-adv-x="403" d="M143 942l7 16q8 22 20 88t12 95q0 22 23 22h33q22 0 22 -22q-7 -50 -31 -133.5t-49 -83.5h-18q-19 0 -19 18z" />
<glyph unicode="&#x201a;" horiz-adv-x="403" d="M143 -217l7 16q8 22 20 88t12 95q0 22 23 22h33q22 0 22 -22q-7 -51 -31 -134.5t-49 -83.5h-18q-19 0 -19 19z" />
<glyph unicode="&#x201c;" horiz-adv-x="632" d="M260 1145l-6 -17q-8 -22 -20.5 -87.5t-12.5 -94.5q0 -22 -22 -22h-33q-23 0 -23 22q7 50 31 133.5t49 83.5h19q18 0 18 -18zM489 1145l-6 -17q-8 -22 -20 -87.5t-12 -94.5q0 -22 -23 -22h-33q-22 0 -22 22q7 50 31 133.5t49 83.5h18q18 0 18 -18z" />
<glyph unicode="&#x201d;" horiz-adv-x="632" d="M373 942l6 16q8 22 20.5 88t12.5 95q0 22 22 22h33q22 0 22 -22q-7 -52 -30.5 -134.5t-48.5 -82.5h-19q-18 0 -18 18zM143 942l7 16q8 22 20 88t12 95q0 22 23 22h33q22 0 22 -22q-7 -50 -31 -133.5t-49 -83.5h-18q-19 0 -19 18z" />
<glyph unicode="&#x201e;" horiz-adv-x="632" d="M373 -217l6 16q8 22 20.5 88t12.5 95q0 22 22 22h33q22 0 22 -22q-7 -52 -30.5 -135t-48.5 -83h-19q-18 0 -18 19zM143 -217l7 16q8 22 20 88t12 95q0 22 23 22h33q22 0 22 -22q-7 -51 -31 -134.5t-49 -83.5h-18q-19 0 -19 19z" />
<glyph unicode="&#x2022;" horiz-adv-x="374" d="M143 319q0 19 12 31t31 12t32 -12t13 -31t-13 -32t-32 -13t-31 13t-12 32z" />
<glyph unicode="&#x2026;" horiz-adv-x="1259" d="M143 35q0 19 12 31t31 12t32 -12t13 -31t-13 -32t-32 -13t-31 13t-12 32zM586 35q0 19 12 31t31 12t32 -12t13 -31t-13 -32t-32 -13t-31 13t-12 32zM1028 35q0 19 12 31t31 12t32 -12t13 -31t-13 -32t-32 -13t-31 13t-12 32z" />
<glyph unicode="&#x202f;" horiz-adv-x="336" />
<glyph unicode="&#x2039;" horiz-adv-x="821" d="M199 403l456 -213q23 -10 23 -28v-27q0 -22 -23 -22l-489 225q-23 14 -23 35v61q0 21 23 35l489 225q23 0 23 -22v-27q0 -19 -23 -29z" />
<glyph unicode="&#x203a;" horiz-adv-x="821" d="M166 190l457 213l-457 213q-23 10 -23 29v27q0 22 23 22l489 -225q23 -14 23 -35v-61q0 -21 -23 -35l-489 -225q-23 0 -23 22v27q0 18 23 28z" />
<glyph unicode="&#x205f;" horiz-adv-x="420" />
<glyph unicode="&#x20ac;" horiz-adv-x="1234" d="M647 362h-237q21 -76 59.5 -133t81 -89.5t94 -52.5t93.5 -26t85 -6q47 0 118 11.5t126 33.5q15 0 18 -14l7 -33q0 -11 -17 -18q-110 -45 -252 -45q-86 0 -160 20t-139.5 62t-114 116t-73.5 174h-170q-23 0 -23 23v23q0 22 23 22h158q-11 79 -11 143q0 87 13 170h-160 q-23 0 -23 23v22q0 23 23 23h172q25 103 73.5 175t115 110.5t138 54.5t158.5 16q142 0 250 -43q17 -7 17 -18l-7 -33q-3 -14 -18 -14q-116 41 -215 41q-29 0 -45.5 -0.5t-49.5 -3t-55.5 -7t-55.5 -14.5t-56.5 -24.5t-52 -36.5t-49 -50t-40 -67t-32.5 -86h233q23 0 23 -23 v-22q0 -23 -23 -23h-250q-12 -73 -12 -170q0 -71 10 -143h252q23 0 23 -22v-23q0 -23 -23 -23z" />
<glyph unicode="&#x2122;" horiz-adv-x="1429" d="M399 1096v-545q0 -27 -20 -27h-29q-20 0 -20 27v545h-160q-27 0 -27 20v27q0 20 27 20h391q27 0 27 -20v-27q0 -20 -27 -20h-162zM963 760h36q7 0 15.5 6t11.5 12l160 326l31 -553q0 -11 6 -19t16 -8h27q20 0 20 27l-29 586q-3 26 -22 26h-82q-16 0 -23 -14l-149 -301 l-150 301q-7 14 -22 14h-82q-19 0 -22 -26l-29 -586q0 -27 20 -27h27q10 0 16 8t6 19l31 553l160 -326q3 -6 11.5 -12t15.5 -6z" />
<glyph unicode="&#x25fc;" horiz-adv-x="829" d="M0 829h829v-829h-829v829z" />
</font>
</defs>
</svg>
